<?xml version="1.0" encoding="utf-8"?>
<!-- Generator: Adobe Illustrator 16.0.0, SVG Export Plug-In . SVG Version: 6.00 Build 0)  -->
<!DOCTYPE svg PUBLIC "-//W3C//DTD SVG 1.1//EN" "http://www.w3.org/Graphics/SVG/1.1/DTD/svg11.dtd">
<svg version="1.1" xmlns="http://www.w3.org/2000/svg" xmlns:xlink="http://www.w3.org/1999/xlink" x="0px" y="0px"
	 width="250px" height="70px" viewBox="100 0 422.032 185.901" enable-background="new 0 0 422.032 185.901"
	 xml:space="preserve">
<g id="_x36_4">
</g>
<g id="Layer_3">
	<g>
		<g>
			<g>
				<path fill="#E6E6E6" d="M108.938,101.095c-0.222-0.268,0.308-1.118,1.432-2.428c1.117-1.308,2.849-3.058,4.704-5.29
					c0.455-0.562,0.948-1.138,1.365-1.78c0.222-0.312,0.447-0.631,0.678-0.956c0.107-0.165,0.193-0.341,0.293-0.511l0.146-0.26
					c0.014-0.03,0.014-0.039,0.02-0.06c0.043-0.129,0.044-0.255,0.039-0.337c0.032-0.059-0.105-0.028-0.156-0.032l-0.171,0.014
					c-0.029,0.002-0.025,0.007-0.099,0.008c-0.049-0.002-0.008,0.008-0.131-0.003l-0.353-0.029
					c-0.471-0.042-0.946-0.084-1.428-0.127c-0.963-0.071-1.964,0-2.97-0.021c-1.012,0.063-2.045,0.175-3.092,0.268
					c-1.045,0.194-2.11,0.322-3.18,0.559c-4.289,0.919-8.308,2.387-11.908,3.906c-3.604,1.525-6.803,3.106-9.492,4.464
					c-5.388,2.705-8.809,4.401-9.212,3.799c-0.369-0.548,2.327-3.275,7.388-6.846c2.525-1.788,5.664-3.762,9.375-5.617
					c3.706-1.846,8.003-3.588,12.814-4.62c1.198-0.264,2.419-0.408,3.604-0.603c1.207-0.096,2.398-0.193,3.572-0.228
					c1.184,0.049,2.343,0.023,3.477,0.157c0.566,0.078,1.127,0.156,1.681,0.233l0.413,0.06l0.623,0.108
					c0.436,0.061,0.904,0.21,1.354,0.323c0.895,0.238,1.777,0.473,2.648,0.705c0.428,0.114,0.853,0.229,1.275,0.342l0.312,0.084
					l0.156,0.042c0.001,0.038-0.044,0.098-0.062,0.146l-0.305,0.602c-0.808,1.593-1.538,3.12-2.434,4.474l-0.312,0.505l-0.214,0.297
					c-0.145,0.195-0.279,0.397-0.429,0.579c-0.312,0.348-0.618,0.689-0.918,1.024c-0.586,0.688-1.215,1.249-1.809,1.791
					c-2.396,2.133-4.518,3.486-6.026,4.343C110.097,101.029,109.158,101.361,108.938,101.095z"/>
			</g>
		</g>
	</g>
	<g>
		<g>
			<g>
				<path fill="#E6E6E6" d="M111.895,92.617c0.844,1.054-1.126,4.283-5.011,6.975c-1.967,1.311-4.062,2.107-5.681,2.306
					c-1.639,0.18-2.72-0.151-2.911-0.803c-0.202-0.677,0.449-1.537,1.511-2.461c1.064-0.953,2.538-2.055,4.282-3.212
					C107.529,93.043,111.011,91.509,111.895,92.617z"/>
			</g>
		</g>
	</g>
	<g>
		<g>
			<g>
				<path fill="#E6E6E6" d="M114.262,89.069c0.651,0.154,1.062,1.136,0.883,2.684c-0.207,1.518-1.166,3.477-2.809,5.059
					c-1.677,1.533-3.596,2.365-5.064,2.555c-1.492,0.176-2.475-0.187-2.67-0.833c-0.209-0.677,0.323-1.504,1.148-2.375
					c0.832-0.897,1.938-1.915,3.141-3.001c1.154-1.133,2.163-2.133,3.042-2.919C112.766,89.459,113.571,88.898,114.262,89.069z"/>
			</g>
		</g>
	</g>
	<g>
		<g>
			<g>
				<path fill="#E6E6E6" d="M114.065,89.463c0.436,0.539,0.465,1.287,0.084,2.107c-0.354,0.857-1.21,1.6-2.291,2.169
					c-1.144,0.452-2.265,0.632-3.163,0.333c-0.883-0.253-1.422-0.771-1.531-1.455s0.185-1.404,0.649-1.985
					c0.477-0.531,1.111-1.146,1.939-1.451c0.781-0.433,1.655-0.524,2.39-0.54C112.898,88.667,113.63,88.924,114.065,89.463z"/>
			</g>
		</g>
	</g>
	<g>
		<g>
			<g>
				<path fill="#E6E6E6" d="M115.247,89.463c1.369,0.217,2.328,1.247,2.133,2.306c-0.296,1.153-1.614,1.708-2.921,1.244
					s-2.21-1.484-1.994-2.274C112.632,89.819,113.877,89.245,115.247,89.463z"/>
			</g>
		</g>
	</g>
	<g>
		<g>
			<g>
				<path fill="#E6E6E6" d="M114.065,97.546c0.259,0.21,0.158,0.893-0.4,1.887c-0.551,0.996-1.571,2.296-3.086,3.615
					c-3.003,2.646-8.005,5.387-14.079,6.422c-3.027,0.521-6.012,0.557-8.688,0.16c-2.677-0.404-5.036-1.22-6.827-2.25
					c-1.798-1.022-3.046-2.156-3.729-3.083c-0.691-0.924-0.88-1.58-0.649-1.822c0.518-0.544,2.467,0.729,5.767,1.638
					c3.277,0.955,8.041,1.334,13.276,0.408c5.239-0.893,9.778-2.768,12.905-4.39C111.699,98.518,113.489,97.09,114.065,97.546z"/>
			</g>
		</g>
	</g>
	<g>
		<g>
			<g>
				<path fill="#E6E6E6" d="M98.49,102.278c0.12,0.672-0.92,1.485-2.794,2.15c-1.868,0.628-4.568,1.021-7.501,0.876
					c-5.871-0.354-10.213-2.285-10.012-3.618c0.207-1.405,4.879-1.716,10.263-1.397c2.699,0.131,5.104,0.312,6.912,0.604
					C97.152,101.151,98.368,101.586,98.49,102.278z"/>
			</g>
		</g>
	</g>
	<g>
		<g>
			<g>
				<path fill="#E6E6E6" d="M102.432,101.291c-0.133,1.381-4.594,2.221-9.963,1.873c-5.422-0.195-9.788-1.47-9.75-2.857
					c0.038-1.385,4.504-2.356,9.978-2.159C98.206,98.502,102.564,99.911,102.432,101.291z"/>
			</g>
		</g>
	</g>
	<g>
		<g>
			<g>
				<path fill="#E6E6E6" d="M112.29,97.941c0.243,0.647-0.722,1.695-2.524,2.867c-1.803,1.164-4.477,2.472-7.731,3.329
					c-1.63,0.417-3.248,0.66-4.744,0.728c-1.509,0.031-2.876-0.062-4.012-0.362c-2.282-0.557-3.448-1.589-3.267-2.225
					c0.188-0.695,1.519-0.946,3.411-1.324c0.948-0.161,2.067-0.429,3.3-0.681c1.25-0.308,2.617-0.645,4.053-0.998
					c2.904-0.763,5.637-1.482,7.734-1.788C110.605,97.177,112.045,97.291,112.29,97.941z"/>
			</g>
		</g>
	</g>
</g>
<g id="Layer_1">
	<g id="XMLID_94_">
		<g id="XMLID_95_">
			<g>
				<path fill="#38303F" d="M100.572,68.371c2.791,4.707,2.247,11.402-1.267,15.566c-1.064,1.266-5.038,5.488-11.449,6.777
					c-4.105,0.828-8.41,0.308-12.799-1.55c-6.423-2.72-8.269-8.103-7.854-12.23c0.521-5.098,4.223-9.202,9.227-10.208
					c0.331-0.071,0.674-0.118,1.018-0.153c0.686,0.887,1.525,1.691,2.46,1.999c-1.064-0.071-2.094-0.024-3.075,0.177
					c-4.104,0.828-7.145,4.199-7.57,8.398c-0.45,4.4,2.022,8.174,6.6,10.113c3.998,1.704,7.89,2.177,11.581,1.443
					c5.772-1.171,9.332-4.956,10.291-6.092c2.921-3.478,3.383-9.273,1.064-13.188c-1.774-2.993-4.779-4.235-8.458-3.49
					c-1.301,0.261-2.673,0.758-4.104,1.503c-0.769-0.06-1.538-0.237-2.235-0.615c0,0,0-0.213,0.035-0.544
					c2.059-1.195,4.034-1.987,5.902-2.366C94.468,63.001,98.348,64.621,100.572,68.371z"/>
				<path fill="#ED294F" d="M98.798,69.424c2.318,3.915,1.856,9.711-1.064,13.188c-0.959,1.136-4.519,4.921-10.291,6.092
					c-3.691,0.733-7.583,0.261-11.581-1.443c-4.577-1.939-7.05-5.713-6.6-10.113c0.426-4.199,3.466-7.57,7.57-8.398
					c0.981-0.201,2.011-0.248,3.075-0.177c0.012,0,0.012,0,0.012,0c0.308,0.106,0.639,0.153,0.97,0.118
					c0.06,0.012,0.118,0.012,0.178,0.035c-0.911,0.391-3.513,1.881-2.566,5.772c0,0,1.194-5.962,5.322-4.4
					c3.336,1.266,5.193-1.242,6.636,2.46c0,0,1.716-3.43-5.003-3.513c0,0,4.306-0.13,5.429-2.401c0,0-2.307,0.97-4.648,0.793
					c1.432-0.745,2.804-1.242,4.104-1.503C94.019,65.188,97.023,66.431,98.798,69.424z M97.39,79.762
					c0.745-1.479,1.396-3.738,0.331-6.032c-0.248-0.545-0.473-1.029-0.627-1.337c0,0.083,0.013,0.165,0.024,0.248
					c0.165,1.384,0.509,4.259-0.615,6.636c-0.911,1.929-2.626,3.312-3.644,4.129c-0.284,0.225-0.556,0.449-0.674,0.567
					c0.118,0,0.354-0.023,0.863-0.118c0.118-0.023,0.26-0.06,0.402-0.095C94.504,83.535,96.313,81.938,97.39,79.762z M73.922,76.521
					c1.266-2.661,2.318-4.341-0.178-3.832c-1.976,0.402-4.104,5.891-0.815,9.096C76.312,85.073,72.101,80.342,73.922,76.521z"/>
				<path fill="#38303F" d="M97.721,73.729c1.065,2.294,0.414,4.554-0.331,6.032c-1.076,2.177-2.886,3.773-3.938,3.998
					c-0.143,0.035-0.284,0.071-0.402,0.095c-0.509,0.095-0.745,0.118-0.863,0.118c0.118-0.118,0.39-0.343,0.674-0.567
					c1.018-0.816,2.732-2.2,3.644-4.129c1.124-2.377,0.78-5.252,0.615-6.636c-0.012-0.083-0.024-0.165-0.024-0.248
					C97.248,72.7,97.473,73.185,97.721,73.729z"/>
				<path fill="#38303F" d="M85.455,69.045c6.719,0.083,5.003,3.513,5.003,3.513c-1.442-3.702-3.3-1.194-6.636-2.46
					c-4.128-1.562-5.322,4.4-5.322,4.4c-0.946-3.892,1.655-5.382,2.566-5.772c0.556,0.083,1.124,0.213,1.691,0.379l0.461,0.13
					l0.391-0.261c0.899-0.591,1.774-1.111,2.626-1.537c2.342,0.177,4.648-0.793,4.648-0.793
					C89.761,68.915,85.455,69.045,85.455,69.045z"/>
				<path fill="#38303F" d="M83.787,62.882l1.49,0.77c-0.863,0.674-1.136,1.904-1.242,2.626c-0.391,0.225-0.78,0.461-1.171,0.722
					c-0.189-0.048-0.379-0.095-0.556-0.131c0.106-0.035,0.153-0.059,0.153-0.059C81.634,64.763,83.787,62.882,83.787,62.882z"/>
				<path fill="#38303F" d="M84,66.821c0.697,0.378,1.467,0.556,2.235,0.615c-0.852,0.426-1.727,0.946-2.626,1.537l-0.391,0.261
					l-0.461-0.13c-0.567-0.166-1.136-0.296-1.691-0.379c0.13-0.06,0.225-0.095,0.272-0.106c-0.154,0.035-0.308,0.071-0.45,0.071
					c-0.331-0.048-0.65-0.095-0.97-0.118c0,0,0,0-0.012,0c-0.935-0.308-1.774-1.112-2.46-1.999c0.626-0.083,1.266-0.119,1.928-0.083
					c1.537,0.733,2.566,0.509,2.934,0.378c0.177,0.036,0.366,0.083,0.556,0.131c0.391-0.261,0.78-0.497,1.171-0.722
					C84,66.608,84,66.821,84,66.821z"/>
				<path fill="#38303F" d="M82.309,66.868c-0.367,0.131-1.396,0.355-2.934-0.378C80.321,66.502,81.303,66.632,82.309,66.868z"/>
				<path fill="#38303F" d="M81.339,68.619c-0.048,0.012-0.143,0.047-0.272,0.106c-0.06-0.023-0.118-0.023-0.178-0.035
					C81.031,68.69,81.185,68.654,81.339,68.619z"/>
				<path fill="#38303F" d="M80.889,68.69c-0.331,0.035-0.662-0.012-0.97-0.118C80.238,68.596,80.558,68.643,80.889,68.69z"/>
				<path fill="#38303F" d="M79.375,66.49c-0.662-0.036-1.302,0-1.928,0.083c-1.041-1.36-1.704-2.898-1.763-3.064
					C77.115,65.118,78.357,66.017,79.375,66.49z"/>
				<path fill="#38303F" d="M73.744,72.688c2.496-0.509,1.443,1.171,0.178,3.832c-1.821,3.821,2.39,8.553-0.993,5.264
					C69.64,78.579,71.769,73.091,73.744,72.688z"/>
			</g>
		</g>
	</g>
	<g id="XMLID_84_">
		<g id="XMLID_93_">
			<g>
				<path fill="#38303F" d="M116.28,73.146c6.269,3.524,9.947,9.947,8.729,16.43c-1.609,8.517-11.06,13.852-21.138,11.947
					c-0.781-0.143-1.538-0.332-2.271-0.557l0.012-0.047c0.178,0.035,0.379-0.036,0.568,0c0.413-0.201,0.627-0.828,0.426-1.242
					c-0.06-0.13-0.119-0.26-0.166-0.402c0.58,0.178,1.171,0.308,1.774,0.426c0.319,0.06,0.627,0.106,0.946,0.154
					c-0.048,0.059-0.095,0.118-0.154,0.177c-0.366,0.414-0.378,0.982,0.036,1.337c0.07,0.106,0.236,0.236,0.426,0.272
					c0.271,0.047,0.579-0.083,0.898-0.308c0.391-0.414,0.77-0.84,1.124-1.29c0.923,0.024,1.834-0.023,2.721-0.13
					c-0.402,0.308-0.485,0.828-0.201,1.254c0.142,0.213,0.308,0.343,0.592,0.402c0.177,0.035,0.473-0.012,0.674-0.071
					c1.147-0.769,2.212-1.632,3.158-2.59c4.519-1.704,7.89-5.182,8.741-9.676c0.852-4.519-1.053-9.014-4.684-12.243
					c-0.521-1.183-1.171-2.33-1.94-3.431c-0.095-0.13-0.201-0.236-0.331-0.307L116.28,73.146z"/>
				<path fill="#944A97" d="M118.492,76.989c3.631,3.229,5.535,7.725,4.684,12.243c-0.852,4.494-4.223,7.972-8.741,9.676
					c2.815-2.827,4.708-6.399,5.441-10.303C120.621,84.666,120.136,80.645,118.492,76.989z"/>
				<path fill="#38303F" d="M118.492,76.989c1.644,3.655,2.129,7.677,1.384,11.616c-0.733,3.903-2.626,7.476-5.441,10.303
					c-1.324,0.496-2.744,0.84-4.223,1.005c0.012,0,0.023-0.012,0.035-0.023c4.129-2.744,6.896-6.86,7.795-11.628
					c0.899-4.767-0.177-9.616-3.016-13.662c-0.012-0.012-0.023-0.035-0.023-0.047C116.292,75.251,117.463,76.066,118.492,76.989z"/>
				<path fill="#944A97" d="M115.026,74.6c2.839,4.046,3.915,8.896,3.016,13.662c-0.898,4.768-3.666,8.884-7.795,11.628
					c-0.012,0.012-0.023,0.023-0.035,0.023c-0.887,0.106-1.798,0.154-2.721,0.13c5.631-6.907,7.748-18.109,5.027-26.591
					c0.875,0.308,1.703,0.687,2.484,1.101C115.003,74.564,115.015,74.588,115.026,74.6z"/>
				<path fill="#38303F" d="M116.552,73.559c0.77,1.101,1.42,2.248,1.94,3.431c-1.029-0.923-2.2-1.738-3.489-2.437
					c-0.261-0.426-0.166-0.958,0.26-1.242c0.308-0.201,0.662-0.213,0.958-0.059C116.351,73.322,116.457,73.429,116.552,73.559z"/>
				<path fill="#38303F" d="M117.368,63.174c0,0.484-0.379,0.981-0.852,0.981c-4.033,0.201-5.985,4.685-6.647,6.624
					c-0.06-0.012-0.131-0.023-0.189-0.035c-0.567-0.106-1.136-0.189-1.691-0.249c0.142-0.484,0.366-1.123,0.686-1.845
					c0.106,0.023,0.225,0.047,0.344,0.07c0.544,0.106,0.981-0.188,1.088-0.745c0.012-0.059,0.012-0.118,0.012-0.177
					c0-0.319-0.153-0.58-0.567-0.852c1.312-2.2,3.466-4.437,6.837-4.613C116.859,62.322,117.368,62.7,117.368,63.174z"/>
				<path fill="#38303F" d="M116.28,73.146l-0.06,0.106c-0.296-0.154-0.65-0.143-0.958,0.059c-0.426,0.284-0.521,0.816-0.26,1.242
					c-0.781-0.414-1.609-0.793-2.484-1.101c-0.166-0.556-0.367-1.088-0.58-1.62c-0.188-0.509-0.721-0.71-1.229-0.521
					s-0.71,0.722-0.521,1.23c0.035,0.083,0.059,0.153,0.095,0.236c-0.308-0.071-0.627-0.142-0.946-0.201
					c-0.568-0.106-1.136-0.189-1.704-0.236c0.048-0.06,0.106-0.106,0.154-0.154c0.047-0.047,0.095-0.094,0.13-0.153
					c0.106,0.178,0.284,0.308,0.521,0.379c0,0,0.023,0,0.071,0.012c0.461,0.082,0.887-0.213,1.088-0.745
					c0,0,0.083-0.344,0.272-0.899C112.199,71.24,114.363,72.057,116.28,73.146z"/>
				<path fill="#38303F" d="M112.519,73.452c2.721,8.481,0.604,19.684-5.027,26.591c-0.769-0.012-1.55-0.082-2.33-0.188
					c6.198-6.648,8.493-18.701,5.122-27.076C111.052,72.968,111.797,73.181,112.519,73.452z"/>
				<path fill="#38303F" d="M111.938,71.832c0.213,0.532,0.414,1.064,0.58,1.62c-0.722-0.271-1.467-0.484-2.235-0.674
					c-0.036-0.083-0.06-0.153-0.095-0.236c-0.189-0.509,0.012-1.041,0.521-1.23S111.75,71.323,111.938,71.832z"/>
				<path fill="#38303F" d="M114.435,98.908c-0.946,0.958-2.011,1.821-3.158,2.59c-0.201,0.06-0.497,0.106-0.674,0.071
					c-0.284-0.06-0.45-0.189-0.592-0.402c-0.284-0.426-0.201-0.946,0.201-1.254C111.69,99.748,113.11,99.404,114.435,98.908z"/>
				<path fill="#944A97" d="M110.283,72.778c3.371,8.375,1.076,20.428-5.122,27.076c-0.319-0.048-0.627-0.095-0.946-0.154
					c-0.604-0.118-1.194-0.248-1.774-0.426c-3.797-8.552-1.514-20.439,5.192-26.934c0.568,0.047,1.136,0.13,1.704,0.236
					C109.656,72.637,109.976,72.707,110.283,72.778z"/>
				<path fill="#38303F" d="M110.295,62.416l-0.048,0.272c-0.07,0.367-0.319,0.698-0.815,0.793c-0.379,0.023-0.675,0.059-1.041,0
					c-0.272-0.06-0.568-0.013-0.663-0.036c-0.106,0.071-0.225,0.237-0.225,0.237c-0.26,0.343-0.532,0.757-0.804,1.183
					c-0.284,0.521-0.332,0.792-0.261,0.898c0.095,0.024,0.071,0.106,0.071,0.106c0.083,0.118,0.26,0.154,0.426,0.272
					c0.792,0.343,1.597,0.592,2.425,0.745c0.059,0.012,0.13,0.023,0.189,0.06c-0.344,0.579-0.639,1.159-0.876,1.703
					c-0.875-0.178-1.68-0.438-2.543-0.757c-0.083-0.024-0.26-0.143-0.343-0.166c-1.124,0.923-2.827,1.372-4.294,1.088
					c-0.083-0.012-0.083-0.012-0.083-0.012s0,0-0.023,0.095c-1.064,1.124-2.46,1.999-4.045,2.366
					c-0.083-0.106-0.189-0.036-0.367-0.071c-0.284-0.06-0.532-0.201-0.686-0.414c-0.226-0.331-0.131-0.78,0.118-1.112
					c0.236-0.248,0.319-0.709,0.426-1.253c0.106-0.557,0.201-1.101,0.496-1.621c-0.39,0.023-0.697,0.166-1.005,0.296
					c-0.106,0.071-0.213,0.142-0.213,0.142c-0.331,0.225-0.876,0.592-1.538,0.568c-0.946,0.012-1.763-0.71-1.976-1.609
					c-0.153-0.686-0.012-1.419,0.497-2.094c0.757-0.993,1.786-1.454,2.591-1.691c0.402-0.106,0.898-0.201,1.372-0.213
					c-0.095-0.496-0.201-0.981-0.106-1.442c0.083-0.935,0.438-1.811,0.769-2.603c0.201-0.532,0.615-1.219,1.254-1.573
					c0.414-0.201,0.793-0.225,0.981-0.189c0.639,0.118,0.899,0.733,0.982,0.852c0.556,1.053,0.91,2.165,1.277,3.276
					c0.473-0.012,0.946-0.012,1.337-0.035c0.674-0.06,1.419-0.012,2.176,0.035c1.691,0.036,2.945,0.462,4.046,1.136
					C110.165,61.624,110.271,62.026,110.295,62.416z M106.024,62.464c0.106-0.083,0.142-0.261,0.248-0.331
					c-0.188-0.036-0.366-0.071-0.662-0.036c-0.579,0.083-1.171,0.166-1.916,0.119c-0.567-0.013-1.147,0.059-1.715,0.047
					c-0.189-0.035-0.568-0.012-0.994-0.272c-0.331-0.26-0.449-0.662-0.521-0.769c-0.308-0.911-0.604-1.821-0.993-2.744
					c-0.023,0.083-0.036,0.178-0.154,0.248c-0.295,0.615-0.532,1.325-0.556,1.987c-0.035,0.65,0.153,1.171,0.474,1.515
					c0.236,0.236,0.354,0.627,0.188,0.981c-0.153,0.354-0.484,0.567-0.863,0.592c-0.863,0.035-1.632,0.07-2.342,0.319
					c-0.71,0.248-1.242,0.532-1.621,1.028c-0.035,0.178-0.153,0.344-0.094,0.545c-0.024,0.095,0.142,0.225,0.142,0.225
					c0.095,0.012,0.308-0.13,0.532-0.284c0.106-0.071,0.213-0.153,0.319-0.225c1.277-0.71,2.779-0.615,3.892-0.497
					c0.023-0.095,0.023-0.095,0.106-0.07c0.284,0.047,0.449,0.177,0.592,0.39c0.153,0.213,0.188,0.509,0.142,0.781
					c-0.201,0.532-0.449,0.863-0.78,1.088c-0.106,0.083-0.119,0.166-0.237,0.248c-0.236,0.237-0.319,0.698-0.39,1.065
					c0.438-0.296,0.898-0.687,1.241-1.006c0.226-0.236,0.462-0.485,0.864-0.592c0.401-0.118,0.769-0.047,0.958-0.012
					c1.005,0.189,2.011-0.095,2.768-0.615c-0.248-0.709-0.012-1.431,0.449-2.377C105.374,63.387,105.658,62.866,106.024,62.464z"/>
				<path fill="#38303F" d="M110.117,67.799c0,0.059,0,0.118-0.012,0.177c-0.106,0.557-0.544,0.852-1.088,0.745
					c-0.119-0.023-0.237-0.047-0.344-0.07c0.237-0.544,0.532-1.124,0.876-1.703C109.964,67.219,110.117,67.479,110.117,67.799z"/>
				<path fill="#38303F" d="M109.68,70.744c0.059,0.012,0.13,0.023,0.189,0.035c-0.189,0.556-0.272,0.899-0.272,0.899
					c-0.201,0.532-0.627,0.827-1.088,0.745c-0.048-0.012-0.071-0.012-0.071-0.012c-0.236-0.071-0.414-0.201-0.521-0.379
					c0.213-0.331,0.201-0.84-0.047-1.136c0.035-0.118,0.07-0.248,0.118-0.402C108.544,70.555,109.112,70.638,109.68,70.744z"/>
				<path fill="#38303F" d="M107.87,70.897c0.248,0.296,0.26,0.805,0.047,1.136c-0.142-0.213-0.201-0.461-0.153-0.698
					C107.775,71.288,107.811,71.134,107.87,70.897z"/>
				<path fill="#38303F" d="M107.988,70.495c-0.048,0.154-0.083,0.284-0.118,0.402c-0.012-0.012-0.012-0.012-0.024-0.023
					c-0.307-0.343-0.97-0.379-1.312-0.06c-0.474,0.45-0.935,0.923-1.349,1.42c-0.993,0.012-1.951,0.106-2.886,0.271
					c0.082-0.059,0.165-0.106,0.248-0.165c0.438-0.296,0.532-0.852,0.236-1.289c-0.177-0.261-0.438-0.391-0.709-0.402
					C103.954,70.33,105.953,70.271,107.988,70.495z"/>
				<path fill="#38303F" d="M107.917,72.033c-0.035,0.06-0.083,0.106-0.13,0.153c-0.048,0.048-0.106,0.095-0.154,0.154
					c-0.827-0.095-1.644-0.13-2.448-0.106c0.414-0.497,0.875-0.97,1.349-1.42c0.343-0.319,1.006-0.283,1.312,0.06
					c0.013,0.012,0.013,0.012,0.024,0.023c-0.06,0.236-0.095,0.391-0.106,0.438C107.716,71.572,107.775,71.82,107.917,72.033z"/>
				<path fill="#38303F" d="M107.491,100.043c-0.354,0.45-0.733,0.876-1.124,1.29c-0.319,0.225-0.627,0.354-0.898,0.308
					c-0.189-0.036-0.355-0.166-0.426-0.272c-0.414-0.354-0.402-0.923-0.036-1.337c0.06-0.059,0.106-0.118,0.154-0.177
					C105.941,99.961,106.723,100.031,107.491,100.043z"/>
				<path fill="#38303F" d="M105.185,72.234c0.805-0.023,1.621,0.012,2.448,0.106c-6.706,6.494-8.989,18.382-5.192,26.934
					c-0.78-0.213-1.55-0.484-2.271-0.792C97.117,89.989,99.199,79,105.185,72.234z"/>
				<path fill="#43B020" d="M106.272,62.133c-0.106,0.07-0.142,0.248-0.248,0.331c-0.366,0.402-0.65,0.923-0.923,1.349
					c-0.461,0.946-0.697,1.668-0.449,2.377c-0.757,0.521-1.763,0.805-2.768,0.615c-0.189-0.035-0.557-0.106-0.958,0.012
					c-0.402,0.106-0.639,0.355-0.864,0.592c-0.343,0.319-0.804,0.71-1.241,1.006c0.07-0.367,0.153-0.828,0.39-1.065
					c0.118-0.082,0.131-0.165,0.237-0.248c0.331-0.225,0.579-0.556,0.78-1.088c0.047-0.272,0.012-0.568-0.142-0.781
					c-0.143-0.213-0.308-0.343-0.592-0.39c-0.083-0.024-0.083-0.024-0.106,0.07c-1.112-0.118-2.614-0.213-3.892,0.497
					c-0.106,0.071-0.213,0.153-0.319,0.225c-0.225,0.154-0.438,0.296-0.532,0.284c0,0-0.166-0.13-0.142-0.225
					c-0.06-0.201,0.059-0.367,0.094-0.545c0.379-0.496,0.911-0.78,1.621-1.028c0.71-0.249,1.479-0.284,2.342-0.319
					c0.379-0.024,0.71-0.237,0.863-0.592c0.166-0.354,0.048-0.745-0.188-0.981c-0.32-0.344-0.509-0.864-0.474-1.515
					c0.023-0.662,0.261-1.372,0.556-1.987c0.118-0.07,0.131-0.165,0.154-0.248c0.39,0.923,0.686,1.833,0.993,2.744
					c0.071,0.106,0.189,0.509,0.521,0.769c0.426,0.261,0.805,0.237,0.994,0.272c0.567,0.012,1.147-0.06,1.715-0.047
					c0.745,0.047,1.337-0.036,1.916-0.119C105.906,62.062,106.084,62.097,106.272,62.133z"/>
				<path fill="#944A97" d="M102.299,72.506c0.935-0.165,1.893-0.26,2.886-0.271c-5.985,6.766-8.067,17.755-5.016,26.248
					c-0.804-0.332-1.561-0.71-2.282-1.124c-0.012-0.035-0.024-0.06-0.048-0.095c-2.862-3.963-3.938-8.812-3.052-13.484
					C95.65,79.201,98.324,75.145,102.299,72.506z"/>
				<path fill="#38303F" d="M102.783,71.052c0.296,0.438,0.201,0.993-0.236,1.289c-0.083,0.059-0.166,0.106-0.248,0.165
					c-1.621,0.284-3.158,0.77-4.555,1.443c1.101-1.171,2.354-2.224,3.762-3.135c0.06-0.035,0.118-0.07,0.178-0.095
					c0.13-0.023,0.26-0.047,0.391-0.07C102.346,70.661,102.606,70.791,102.783,71.052z"/>
				<path fill="#38303F" d="M102.606,99.677c0.201,0.414-0.013,1.041-0.426,1.242c-0.189-0.036-0.391,0.035-0.568,0
					c-0.271-0.06-0.532-0.201-0.662-0.509c-0.296-0.627-0.556-1.266-0.781-1.928c0.722,0.308,1.491,0.579,2.271,0.792
					C102.487,99.417,102.547,99.547,102.606,99.677z"/>
				<path fill="#38303F" d="M102.074,70.649c-0.131,0.023-0.261,0.047-0.391,0.07C101.813,70.661,101.943,70.638,102.074,70.649z"/>
				<path fill="#38303F" d="M101.684,70.72c-0.06,0.024-0.118,0.06-0.178,0.095c-1.407,0.911-2.661,1.964-3.762,3.135
					c-3.82,1.846-6.612,5.062-7.369,9.097c-0.78,4.116,0.733,8.209,3.75,11.344c0.567,1.36,1.301,2.673,2.188,3.915
					c0.153,0.213,0.414,0.354,0.591,0.391c0.272,0.047,0.485,0,0.698-0.154c0.402-0.271,0.521-0.769,0.284-1.183
					c0.722,0.414,1.479,0.792,2.282,1.124c0.226,0.662,0.485,1.301,0.781,1.928c0.13,0.308,0.391,0.449,0.662,0.509l-0.012,0.047
					c-8.812-2.638-14.549-10.409-13.059-18.275C89.713,76.505,95.012,72.01,101.684,70.72z"/>
				<path fill="#38303F" d="M97.744,73.949c1.396-0.674,2.934-1.159,4.555-1.443c-3.975,2.639-6.648,6.695-7.512,11.273
					c-0.887,4.672,0.189,9.521,3.052,13.484c0.023,0.035,0.036,0.06,0.048,0.095c-1.432-0.84-2.697-1.846-3.762-2.969
					c-1.455-3.478-1.869-7.275-1.171-10.954C93.628,79.828,95.284,76.575,97.744,73.949z"/>
				<path fill="#38303F" d="M97.887,97.358c0.236,0.414,0.118,0.911-0.284,1.183c-0.213,0.154-0.426,0.201-0.698,0.154
					c-0.177-0.036-0.438-0.178-0.591-0.391c-0.888-1.242-1.621-2.555-2.188-3.915C95.189,95.513,96.455,96.519,97.887,97.358z"/>
				<path fill="#944A97" d="M90.375,83.046c0.757-4.034,3.549-7.251,7.369-9.097c-2.46,2.626-4.116,5.879-4.79,9.486
					c-0.698,3.679-0.284,7.477,1.171,10.954C91.108,91.255,89.595,87.162,90.375,83.046z"/>
			</g>
		</g>
	</g>
	<g id="XMLID_72_">
		<g id="XMLID_82_">
			<g>
				<path fill="#38303F" d="M73.394,93.566c1.065,2.232,1.914,4.001-1.129,5.977c-1.961,1.269-4.423,1.538-7.141,0.766
					c-3.62-1.021-7.23-3.849-9.41-7.364c-2.514-4.062-3.387-7.696-2.581-10.804c0.317-1.21,0.876-2.329,1.675-3.34
					c-0.045-0.007-0.079-0.001-0.13-0.012c-0.251-0.024-0.502-0.065-0.765-0.145c-2.392-0.677-3.945-3.248-4.008-3.359l-0.368-0.62
					l0.479-0.529c0.106-0.113,2.546-2.781,5.367-2.506c0.258,0.028,0.521,0.075,0.765,0.145c0.808,0.231,1.521,0.678,2.112,1.173
					c0.183-1.6,0.982-3.249,2.996-4.371l0.947,1.7c-2.231,1.25-2.206,3.315-1.898,4.615c1.456-0.442,3.014-0.457,4.533-0.028
					c1.591,0.449,3.045,1.349,4.337,2.69c2.321,2.414,2.208,5.046,2.106,7.374c-0.057,1.121-0.103,2.175,0.115,3.149
					C71.964,90.564,72.763,92.229,73.394,93.566z M71.193,97.898c1.605-1.044,1.5-1.273,0.435-3.49
					c-0.646-1.354-1.532-3.206-2.129-5.9c-0.279-1.229-0.225-2.471-0.177-3.668c0.1-2.217,0.184-4.122-1.56-5.936
					c-1.044-1.078-2.208-1.812-3.456-2.165c-1.571-0.439-3.209-0.267-4.596,0.506c-2.555,1.428-4.134,3.244-4.681,5.383
					c-0.66,2.576,0.12,5.691,2.353,9.289c1.931,3.115,5.103,5.615,8.276,6.51C67.157,98.853,69.341,99.111,71.193,97.898z
					 M54.876,76.848c1.162,0.117,2.4-0.692,3.163-1.339c-0.498-0.631-1.365-1.556-2.427-1.853c-0.139-0.04-0.275-0.07-0.422-0.081
					c-1.222-0.124-2.467,0.745-3.162,1.339c0.498,0.631,1.378,1.562,2.42,1.85C54.588,76.803,54.73,76.836,54.876,76.848z"/>
				<path fill="#FF8300" d="M71.628,94.408c1.065,2.217,1.171,2.446-0.435,3.49c-1.853,1.213-4.036,0.954-5.534,0.528
					c-3.174-0.895-6.346-3.395-8.276-6.51c-2.232-3.598-3.013-6.713-2.353-9.289c0.547-2.139,2.126-3.955,4.681-5.383
					c1.387-0.772,3.024-0.945,4.596-0.506c1.248,0.353,2.412,1.087,3.456,2.165c1.743,1.813,1.659,3.719,1.56,5.936
					c-0.048,1.197-0.103,2.438,0.177,3.668C70.096,91.202,70.981,93.055,71.628,94.408z"/>
				<path fill="#43B020" d="M58.039,75.509c-0.763,0.646-2.001,1.456-3.163,1.339c-0.146-0.012-0.288-0.045-0.428-0.084
					c-1.042-0.288-1.922-1.219-2.42-1.85c0.695-0.594,1.94-1.463,3.162-1.339c0.146,0.011,0.283,0.041,0.422,0.081
					C56.674,73.953,57.541,74.878,58.039,75.509z"/>
			</g>
		</g>
	</g>
	<g id="XMLID_24_">
		<g id="XMLID_60_">
			<g>
				<path fill="#38303F" d="M111.319,102.423c-0.603,0.332-1.094,0.786-1.475,1.302c-0.319,0.074-0.614,0.185-0.885,0.319v-0.012
					c0.037-0.185,0.062-0.368,0.074-0.565c0.049-1.02-0.295-2.002-0.971-2.751c-0.676-0.75-1.585-1.18-2.567-1.253l0.013,0.553
					c0.024,0.577-0.381,1.068-0.934,1.179c-0.062,0.013-0.123,0.024-0.185,0.024c-0.651,0.024-1.191-0.479-1.204-1.13
					c-0.024-0.405-0.036-0.811-0.049-1.216c0-0.222,0-0.442-0.073-0.651c-0.233-0.713-0.7-1.339-1.29-1.781
					c-0.811-0.626-1.806-0.896-2.813-0.762c-1.007,0.123-1.904,0.639-2.53,1.45c-0.442,0.564-0.909,2.161-0.86,2.653
					c0.074,0.639-0.381,1.216-1.02,1.289c-0.233,0.025-0.479-0.024-0.676-0.122c-0.712,0.024-1.4,0.245-1.989,0.663
					c-1.732,1.191-2.175,3.562-0.983,5.294c0.578,0.848,1.45,1.413,2.445,1.585l0.503,0.062c0.639,0.037,1.143,0.59,1.105,1.229
					c-0.024,0.344-0.184,0.651-0.441,0.848c-0.037,0.786-0.197,1.94-0.664,3.391c-0.405,0.159-0.822,0.307-1.229,0.454
					c-0.441,0.16-0.872,0.368-1.253,0.614c-0.467,0.037-0.934,0.086-1.4,0.135c-1.817-1.817-2.788-3.477-3.279-4.508
					c-0.344-0.074-0.651-0.295-0.811-0.639c-0.283-0.577-0.037-1.277,0.54-1.548l0.553-0.319c0.528-0.344,0.971-0.799,1.314-1.327
					c-0.528-1.425-0.504-2.997,0.037-4.385c-0.024-0.025-0.037-0.05-0.062-0.074c-0.676-0.872-1.646-1.462-2.715-1.695
					c-0.896-0.185-1.794-0.098-2.629,0.222c-0.159,0.245-0.418,0.43-0.725,0.503c-0.037,0-0.049,0-0.074,0.013
					c-0.639,0.086-1.228-0.368-1.314-1.008c-0.196-1.437-1.044-2.678-2.309-3.402c-2.224-1.266-5.062-0.479-6.327,1.744
					c-0.527,0.922-0.712,1.966-0.54,3.022c0.013,0.135,0.013,0.307-0.013,0.454c-0.135,0.651-0.786,0.922-1.351,1.105
					c-1.389,0.455-2.457,1.499-2.937,2.875c-0.848,2.42,0.431,5.073,2.851,5.908c0.65,0.233,1.339,0.308,2.002,0.233
					c0.086-0.307,0.295-0.577,0.614-0.737c0.577-0.282,1.277-0.036,1.561,0.541c0.036,0.086,0.086,0.172,0.135,0.271l0.271,0.503
					c1.253,2.212,2.898,3.71,4.741,4.754c-0.995,0.197-1.793,0.664-2.407,1.278c-1.523-1.081-2.924-2.506-4.066-4.373
					c-1.204,0.233-2.457,0.135-3.611-0.271c-3.637-1.266-5.553-5.245-4.287-8.869c0.258-0.737,0.626-1.413,1.081-2.003
					c-0.062-0.073-0.11-0.159-0.16-0.258c-0.639-1.511-0.712-3.206-0.196-4.791c0.688-2.101,2.321-3.759,4.472-4.557
					c0.012,0,0.024-0.013,0.049-0.013c-0.037-0.909,0.172-1.806,0.614-2.629c1.572-2.887,5.749-4.336,8.574-2.973
					c0.442,0.209,0.872,0.516,1.266,0.885c0.196-0.16,0.417-0.308,0.626-0.442c0.013-0.037,0.049-0.135,0.074-0.209
					c0.319-0.995,0.884-2.149,3.513-3.452c0.491-0.245,1.008-0.405,1.536-0.527c0.479-0.111,0.958-0.147,1.449-0.147
					c0.504-0.013,0.982,0.061,1.474,0.159c0.259,0.049,0.504,0.099,0.75,0.172c0.245,0.086,0.479,0.222,0.725,0.295
					c0.393,0.135,0.516-0.172,0.773-0.393c0.848-0.726,1.806-1.253,2.875-1.548c3.882-1.045,8.046,1.24,9.286,5.085
					c0.308,0.946,0.418,1.855,0.32,2.728c1.584,0.553,3.23,2.002,4.017,3.587c0.971,1.929,0.921,3.096,0.859,4.029
					c0.233,0.209,0.467,0.417,0.688,0.663C110.631,100.076,111.146,101.207,111.319,102.423z M106.773,97.312
					c-0.062-0.467-0.221-1.031-0.602-1.806c-0.516-1.007-1.646-2.039-2.629-2.396c-0.185,0.344-0.405,0.688-0.651,1.032
					c-0.036,0.049-0.086,0.098-0.135,0.135c0.147,0.099,0.295,0.196,0.442,0.308c0.859,0.663,1.523,1.548,1.929,2.543
					C105.692,97.116,106.245,97.178,106.773,97.312z M101.013,92.755c0.945-1.277,1.143-2.444,0.688-3.882
					c-0.872-2.689-3.771-4.274-6.474-3.562c-1.105,0.294-2.015,0.934-2.653,1.842c-0.012,0.013-0.012,0.013-0.024,0.025
					l-0.577,1.449c-0.147,0.381-0.479,0.639-0.848,0.712c-0.209,0.05-0.442,0.025-0.663-0.061c-0.59-0.233-0.885-0.909-0.651-1.512
					l0.258-0.639c-1.068-0.43-2.519-0.712-3.992,0.024c-0.369,0.173-0.663,0.345-0.922,0.492c1.155,0.036,2.862,0.319,4.337,1.339
					c1.4,0.958,2.26,2.346,2.555,4.115c0.209,1.265,0.05,2.481-0.467,3.611c0.713,0.147,1.413,0.418,2.052,0.823
					c0.012,0.012,0.024,0.012,0.037,0.024c0.258-0.737,0.589-1.425,0.921-1.855c0.995-1.289,2.444-2.125,4.066-2.334
					c0.725-0.098,1.449-0.062,2.137,0.099C100.779,93.222,100.853,92.964,101.013,92.755z M91.566,113.527
					c0.43-1.265,0.564-2.272,0.614-2.923c-0.983-0.308-1.867-0.86-2.58-1.609c-0.246,0.271-0.516,0.516-0.786,0.749
					C89.195,110.567,90.019,111.955,91.566,113.527z M91.591,99.118c-0.16-0.049-0.147-0.049-0.344-0.098
					c-0.123-0.037-0.233-0.05-0.356-0.074c-0.233-0.024-0.43-0.037-0.676-0.024c-0.099,0.013-0.209,0.024-0.332,0.037
					c-0.098,0.024-0.184,0.086-0.295,0.11c-0.355,0.073-0.736-0.024-1.02-0.295c-0.479-0.43-0.503-1.167-0.062-1.646
					c1.057-1.155,1.462-2.31,1.241-3.648c-0.651-3.932-5.295-3.501-5.344-3.489c-0.811,0.16-1.548,0.516-2.174,1.032
					c0.295,0.577,0.491,1.179,0.589,1.769c0.086,0.639-0.344,1.229-0.982,1.327c-0.639,0.098-1.229-0.345-1.326-0.983
					c-0.16-1.081-1.045-2.321-1.966-2.764c-1.695-0.823-4.533,0.196-5.516,1.99c-0.381,0.712-0.442,1.523-0.147,2.272
					c0.037,0.099,0.049,0.196,0.062,0.295c2.039-1.068,4.558-1.118,6.707,0.099c1.425,0.811,2.481,2.051,3.059,3.537
					c1.069-0.295,2.211-0.344,3.305-0.123c1.388,0.295,2.653,1.008,3.624,2.015c0.282-0.27,0.59-0.54,0.921-0.773
					C90.891,99.463,91.234,99.278,91.591,99.118z M71.322,96.121c-0.05-0.024-0.099-0.049-0.136-0.073
					c-0.024,0.012-0.037,0.024-0.062,0.024c-1.474,0.553-2.592,1.67-3.059,3.096c-0.295,0.896-0.307,1.817-0.037,2.689
					c0.381-0.233,0.786-0.43,1.217-0.589c-0.037-1.266,0.27-2.519,0.896-3.624C70.475,97.067,70.867,96.563,71.322,96.121z"/>
				<path fill="#43B020" d="M108.063,100.716c0.676,0.749,1.02,1.731,0.971,2.751c-0.013,0.197-0.037,0.381-0.074,0.565v0.012
					c-0.454,0.197-0.848,0.467-1.179,0.787c-0.258,0.098-0.504,0.245-0.737,0.38c-1.769,0.197-2.997,1.131-3.71,2.396
					c-1.412,0.356-2.42,1.241-3.01,2.347c0-0.062,0.013-0.123,0.013-0.185c0.037-0.639-0.442-1.203-1.081-1.24
					c-0.639-0.05-1.204,0.43-1.253,1.081c-0.073,1.044-0.246,2.015-0.504,2.911c-1.179,0.54-2.407,1.032-3.648,1.499
					c0.467-1.45,0.627-2.604,0.664-3.391c0.258-0.196,0.417-0.504,0.441-0.848c0.037-0.639-0.467-1.191-1.105-1.229l-0.503-0.062
					c-0.995-0.172-1.867-0.737-2.445-1.585c-1.191-1.731-0.749-4.103,0.983-5.294c0.589-0.418,1.277-0.639,1.989-0.663
					c0.197,0.098,0.442,0.147,0.676,0.122c0.639-0.073,1.094-0.65,1.02-1.289c-0.049-0.492,0.418-2.089,0.86-2.653
					c0.626-0.812,1.523-1.327,2.53-1.45c1.008-0.135,2.003,0.136,2.813,0.762c0.59,0.442,1.057,1.068,1.29,1.781
					c0.073,0.209,0.073,0.43,0.073,0.651c0.013,0.405,0.024,0.811,0.049,1.216c0.013,0.651,0.553,1.154,1.204,1.13
					c0.062,0,0.123-0.012,0.185-0.024c0.553-0.11,0.958-0.602,0.934-1.179l-0.013-0.553
					C106.479,99.536,107.388,99.966,108.063,100.716z"/>
				<path fill="#43B020" d="M106.172,95.507c0.381,0.774,0.54,1.339,0.602,1.806c-0.528-0.135-1.081-0.196-1.646-0.184
					c-0.405-0.995-1.069-1.88-1.929-2.543c-0.147-0.111-0.295-0.209-0.442-0.308c0.049-0.037,0.099-0.086,0.135-0.135
					c0.246-0.344,0.467-0.688,0.651-1.032C104.525,93.468,105.656,94.5,106.172,95.507z"/>
				<path fill="#43B020" d="M101.7,88.873c0.455,1.438,0.258,2.604-0.688,3.882c-0.16,0.209-0.233,0.467-0.222,0.713
					c-0.688-0.16-1.412-0.196-2.137-0.099c-1.622,0.209-3.071,1.045-4.066,2.334c-0.332,0.431-0.663,1.118-0.921,1.855
					c-0.013-0.013-0.025-0.013-0.037-0.024c-0.639-0.405-1.339-0.676-2.052-0.823c0.517-1.13,0.676-2.347,0.467-3.611
					c-0.295-1.77-1.154-3.157-2.555-4.115c-1.475-1.02-3.182-1.303-4.337-1.339c0.259-0.147,0.553-0.319,0.922-0.492
					c1.474-0.736,2.924-0.454,3.992-0.024l-0.258,0.639c-0.233,0.603,0.062,1.278,0.651,1.512c0.221,0.086,0.454,0.11,0.663,0.061
					c0.368-0.073,0.7-0.331,0.848-0.712l0.577-1.449c0.013-0.013,0.013-0.013,0.024-0.025c0.639-0.908,1.548-1.548,2.653-1.842
					C97.93,84.599,100.828,86.184,101.7,88.873z"/>
				<path fill="#38303F" d="M99.256,108.528c0.639,0.037,1.118,0.602,1.081,1.24c0,0.062-0.013,0.123-0.013,0.185v0.013
					c-0.245,0.43-0.417,0.908-0.527,1.388c-0.75,0.418-1.512,0.811-2.298,1.167c0.258-0.896,0.431-1.867,0.504-2.911
					C98.052,108.958,98.617,108.479,99.256,108.528z"/>
				<path fill="#43B020" d="M92.181,110.604c-0.05,0.65-0.185,1.658-0.614,2.923c-1.548-1.572-2.371-2.96-2.752-3.783
					c0.271-0.233,0.54-0.479,0.786-0.749C90.313,109.744,91.197,110.297,92.181,110.604z"/>
				<path fill="#43B020" d="M91.247,99.021c0.196,0.049,0.184,0.049,0.344,0.098c-0.356,0.16-0.7,0.345-1.032,0.565
					c-0.331,0.233-0.639,0.504-0.921,0.773c-0.971-1.007-2.236-1.72-3.624-2.015c-1.094-0.221-2.235-0.172-3.305,0.123
					c-0.577-1.486-1.634-2.727-3.059-3.537c-2.149-1.217-4.668-1.167-6.707-0.099c-0.013-0.099-0.024-0.196-0.062-0.295
					c-0.295-0.749-0.233-1.561,0.147-2.272c0.982-1.794,3.82-2.813,5.516-1.99c0.921,0.442,1.806,1.683,1.966,2.764
					c0.098,0.639,0.688,1.081,1.326,0.983c0.639-0.099,1.068-0.688,0.982-1.327c-0.098-0.59-0.294-1.191-0.589-1.769
					c0.626-0.517,1.363-0.872,2.174-1.032c0.049-0.012,4.692-0.442,5.344,3.489c0.221,1.339-0.185,2.493-1.241,3.648
					c-0.441,0.479-0.417,1.216,0.062,1.646c0.283,0.271,0.664,0.368,1.02,0.295c0.111-0.024,0.197-0.086,0.295-0.11
					c0.123-0.013,0.233-0.024,0.332-0.037c0.246-0.013,0.442,0,0.676,0.024C91.014,98.971,91.124,98.983,91.247,99.021z"/>
				<path fill="#43B020" d="M89.969,115.223c-0.7,0.074-1.4,0.172-2.088,0.295c-0.835,0.16-1.548,0.565-2.138,1.118
					c-0.062,0.012-0.11,0.012-0.159,0.024c-0.271-0.037-0.541-0.073-0.836-0.086c-0.97-0.995-1.83-2.211-2.518-3.562
					c0.736-0.848,1.695-2.481,1.326-5.012c-0.086-0.639-0.676-1.081-1.314-0.995s-1.081,0.688-0.995,1.314
					c0.123,0.835,0.037,1.499-0.135,2.015c-0.233-0.7-0.43-1.425-0.577-2.149c-0.123-0.627-0.737-1.032-1.364-0.909
					c-0.639,0.123-1.044,0.736-0.921,1.376c0.368,1.83,0.995,3.636,1.83,5.282c-0.822-0.528-1.4-1.303-1.412-1.327
					c-0.381-0.528-1.105-0.651-1.634-0.282c-0.517,0.368-0.651,1.093-0.283,1.621c0.099,0.135,2.15,3.01,5.037,2.776
					c0.098,0.135,0.209,0.271,0.319,0.393c-0.295,0.147-0.565,0.332-0.811,0.541h-0.013c-0.196-0.024-0.405-0.037-0.614-0.037
					c-0.418,0-0.811,0.037-1.167,0.11c-1.843-1.044-3.488-2.542-4.741-4.754l-0.271-0.503c-0.049-0.099-0.099-0.185-0.135-0.271
					c-0.283-0.577-0.983-0.823-1.561-0.541c-0.319,0.16-0.528,0.431-0.614,0.737c-0.663,0.074-1.352,0-2.002-0.233
					c-2.42-0.835-3.698-3.488-2.851-5.908c0.479-1.376,1.548-2.42,2.937-2.875c0.564-0.184,1.216-0.454,1.351-1.105
					c0.025-0.147,0.025-0.319,0.013-0.454c-0.172-1.057,0.013-2.101,0.54-3.022c1.266-2.224,4.104-3.01,6.327-1.744
					c1.265,0.725,2.112,1.966,2.309,3.402c0.087,0.64,0.676,1.094,1.314,1.008c0.025-0.013,0.037-0.013,0.074-0.013
					c0.307-0.073,0.565-0.258,0.725-0.503c0.835-0.319,1.732-0.406,2.629-0.222c1.068,0.233,2.039,0.823,2.715,1.695
					c0.024,0.024,0.037,0.049,0.062,0.074c-0.541,1.388-0.565,2.96-0.037,4.385c-0.344,0.528-0.786,0.983-1.314,1.327l-0.553,0.319
					c-0.577,0.271-0.823,0.971-0.54,1.548c0.159,0.344,0.467,0.564,0.811,0.639C87.181,111.746,88.151,113.405,89.969,115.223z"/>
				<path fill="#38303F" d="M84.748,116.574c-0.062-0.013-0.135-0.013-0.209-0.013c-0.945,0-1.756,0.197-2.432,0.553
					c-0.11-0.122-0.222-0.258-0.319-0.393c-2.887,0.233-4.938-2.642-5.037-2.776c-0.368-0.528-0.233-1.253,0.283-1.621
					c0.528-0.369,1.253-0.246,1.634,0.282c0.012,0.024,0.59,0.799,1.412,1.327c-0.835-1.646-1.462-3.452-1.83-5.282
					c-0.123-0.64,0.282-1.253,0.921-1.376c0.627-0.123,1.241,0.282,1.364,0.909c0.147,0.725,0.344,1.449,0.577,2.149
					c0.172-0.516,0.258-1.18,0.135-2.015c-0.086-0.627,0.356-1.229,0.995-1.314s1.229,0.356,1.314,0.995
					c0.369,2.53-0.59,4.164-1.326,5.012C82.918,114.363,83.778,115.579,84.748,116.574z"/>
				<path fill="#43B020" d="M71.187,96.048c0.037,0.024,0.086,0.049,0.136,0.073c-0.455,0.442-0.848,0.946-1.18,1.523
					c-0.627,1.105-0.934,2.358-0.896,3.624c-0.431,0.159-0.836,0.355-1.217,0.589c-0.27-0.872-0.258-1.793,0.037-2.689
					c0.467-1.426,1.585-2.543,3.059-3.096C71.149,96.072,71.162,96.06,71.187,96.048z"/>
			</g>
		</g>
	</g>
	<g id="XMLID_96_">
		<g id="XMLID_97_">
			<g>
				<path fill="#38303F" d="M121.283,102.835c-0.778,1.532-1.852,3.242-3.279,2.827c-1.419-0.407-1.415-2.43-1.255-4.146
					l2.447-25.809c0.037-0.479,0.133-0.947,0.264-1.391c0.949-3.312,4.076-5.142,7.452-4.543c-0.096-0.319-0.11-0.67-0.007-1.014
					c0.041-0.149,0.102-0.279,0.173-0.396c-0.589-0.582-0.856-1.448-0.61-2.3c0.068-0.25,0.19-0.463,0.331-0.664
					c-0.927-0.625-1.508-1.642-1.581-2.751c-0.929-0.515-1.416-1.612-1.11-2.681c0.262-0.894,1.02-1.51,1.881-1.643
					c-0.061-0.342-0.055-0.705,0.049-1.056c0.358-1.236,1.648-1.942,2.883-1.592c1.235,0.358,1.942,1.648,1.584,2.884
					c-0.062,0.201-0.151,0.385-0.251,0.554c1.638,0.718,2.537,2.536,2.025,4.306c-0.26,0.901-0.855,1.619-1.598,2.074
					c0.328,0.54,0.446,1.208,0.254,1.86c-0.135,0.468-0.396,0.851-0.739,1.139c0.179,0.382,0.228,0.82,0.107,1.245
					c-0.103,0.351-0.304,0.643-0.56,0.859c3.121,1.326,4.741,4.51,3.794,7.79c-0.13,0.451-0.309,0.896-0.521,1.324l-1.485,2.916
					l-0.609,1.2l-1.624,3.203l-0.53,1.043l-1.969,3.878l-0.505,1.014L121.283,102.835z M118.946,102.398
					c0.101-0.17,0.211-0.364,0.322-0.592l4.845-9.551c-0.516-0.102-1.033-0.132-1.541-0.077c-0.309,0.03-0.589-0.188-0.619-0.497
					c-0.008-0.077-0.008-0.156,0.019-0.225c0.059-0.216,0.246-0.379,0.478-0.402c0.723-0.081,1.466-0.025,2.201,0.149l2.115-4.167
					l-0.688-0.256c-0.832-0.305-1.664-0.414-2.472-0.323c-0.309,0.03-0.589-0.188-0.619-0.497c-0.007-0.077-0.007-0.156,0.019-0.224
					c0.061-0.209,0.246-0.38,0.478-0.403c0.985-0.11,1.986,0.02,2.987,0.386l0.809,0.302l2.02-3.975
					c-0.361-0.234-0.741-0.441-1.174-0.599l-1.188-0.438c-0.825-0.308-1.657-0.416-2.465-0.325c-0.315,0.032-0.59-0.196-0.626-0.496
					c-0.008-0.077,0-0.157,0.019-0.224c0.067-0.21,0.246-0.38,0.485-0.404c0.984-0.11,1.987,0.027,2.979,0.387l1.189,0.438
					c0.467,0.174,0.896,0.388,1.299,0.637l1.177-2.336c0.16-0.299,0.279-0.606,0.373-0.924c0.684-2.362-0.615-4.604-3.079-5.322
					l-1.218-0.346c-2.472-0.717-4.757,0.48-5.446,2.852c-0.087,0.309-0.147,0.636-0.183,0.973l-2.439,25.808
					C118.981,101.982,118.963,102.206,118.946,102.398z"/>
				<path fill="#FF8300" d="M119.269,101.807c-0.111,0.228-0.222,0.422-0.322,0.592c0.017-0.192,0.035-0.416,0.055-0.672
					l2.439-25.808c0.035-0.337,0.096-0.664,0.183-0.973c0.689-2.371,2.975-3.568,5.446-2.852l1.218,0.346
					c2.464,0.718,3.763,2.96,3.079,5.322c-0.094,0.317-0.213,0.625-0.373,0.924l-1.177,2.336c-0.403-0.249-0.832-0.463-1.299-0.637
					l-1.189-0.438c-0.992-0.359-1.995-0.497-2.979-0.387c-0.239,0.024-0.418,0.194-0.485,0.404
					c-0.019,0.066-0.026,0.146-0.019,0.224c0.036,0.3,0.311,0.528,0.626,0.496c0.808-0.091,1.64,0.018,2.465,0.325l1.188,0.438
					c0.433,0.157,0.812,0.364,1.174,0.599l-2.02,3.975l-0.809-0.302c-1.001-0.366-2.002-0.496-2.987-0.386
					c-0.231,0.023-0.417,0.194-0.478,0.403c-0.025,0.067-0.025,0.146-0.019,0.224c0.03,0.309,0.311,0.527,0.619,0.497
					c0.808-0.091,1.64,0.019,2.472,0.323l0.688,0.256l-2.115,4.167c-0.735-0.175-1.479-0.23-2.201-0.149
					c-0.231,0.023-0.419,0.187-0.478,0.402c-0.026,0.068-0.026,0.147-0.019,0.225c0.03,0.309,0.311,0.527,0.619,0.497
					c0.508-0.055,1.025-0.024,1.541,0.077L119.269,101.807z"/>
			</g>
		</g>
	</g>
	<g id="XMLID_98_">
		<g>
			<path fill="#38303F" d="M143.746,104.823c0.236,0.852,0.484,2.188,0.331,3.868c-0.237,3.383-1.834,8.031-4.814,13.035
				c-0.438,0.722-0.888,1.454-1.372,2.2c0.402-2.579,0.674-5.596,0.769-8.884c1.538-2.603,2.567-4.909,3.135-6.766
				c0.899-2.827,0.71-4.543,1.159-4.649C143.154,103.581,143.427,103.972,143.746,104.823z"/>
			<path fill="#38303F" d="M139.795,88.642c0.201,0.071,0.225,0.544,0.083,1.396c-0.06,0.426-0.178,0.946-0.319,1.562
				c-0.166,0.604-0.438,1.266-0.733,2.022c-0.462,1.171-1.089,2.508-1.916,3.963c-0.095-0.402-0.201-0.78-0.308-1.147
				c-0.272-0.923-0.545-1.751-0.816-2.473c0.366-0.496,0.697-0.97,1.005-1.419c0.414-0.639,0.84-1.183,1.159-1.68
				c0.296-0.509,0.58-0.935,0.816-1.277C139.251,88.913,139.605,88.582,139.795,88.642z"/>
			<path fill="#38303F" d="M138.671,111.601c0.024,1.171,0.012,2.318-0.012,3.442c-0.816,1.384-1.786,2.851-2.91,4.377
				c-0.839,1.147-1.762,2.33-2.756,3.536c-0.13-3.253-0.201-7.108-0.26-11.237c-0.071-2.744-0.143-5.358-0.201-7.759
				c1.821-2.26,3.276-4.424,4.377-6.376C137.843,101.286,138.529,106.207,138.671,111.601z"/>
			<path fill="#38303F" d="M138.659,115.043c-0.095,3.288-0.366,6.305-0.769,8.884c-1.277,1.951-2.744,3.974-4.389,6.009
				c-0.142-0.958-0.248-2.13-0.331-3.466c-0.071-1.064-0.13-2.248-0.178-3.514c0.994-1.206,1.917-2.389,2.756-3.536
				C136.873,117.894,137.843,116.427,138.659,115.043z"/>
			<path fill="#38303F" d="M137.891,123.927c-0.166,1.028-0.343,1.986-0.532,2.862c-0.863,3.832-1.893,6.115-2.686,6.021
				c-0.532-0.071-0.91-1.111-1.171-2.874C135.146,127.9,136.613,125.878,137.891,123.927z"/>
			<path fill="#38303F" d="M136.602,96.437c0.106,0.367,0.213,0.745,0.308,1.147c-1.101,1.952-2.556,4.116-4.377,6.376
				c-0.035-2.153-0.071-4.117-0.083-5.855c1.325-1.502,2.425-2.898,3.336-4.141C136.057,94.686,136.329,95.514,136.602,96.437z"/>
			<path fill="#38303F" d="M135.797,78.103l-0.035,0.153l-0.071,0.296l-0.272,1.171c-0.39,1.55-0.674,3.193-1.159,4.696l-0.343,1.1
				l-0.236,0.65c-0.166,0.438-0.319,0.888-0.509,1.325c-0.414,0.828-0.84,1.656-1.266,2.484c-0.035,0.047-0.06,0.106-0.095,0.153
				c-0.911,1.55-1.869,3.075-3.017,4.436c-2.282,2.898-4.873,5.418-7.594,7.582c-1.325,1.147-2.756,2.105-4.128,3.123
				c-1.42,0.935-2.827,1.881-4.259,2.721c-0.426,0.248-0.84,0.497-1.266,0.733c-0.898-1.159-1.644-1.833-2.141-1.964l-1.538-2.602
				c0.639-0.367,1.277-0.746,1.916-1.136c1.337-0.805,2.614-1.691,3.928-2.567c1.242-0.946,2.555-1.845,3.749-2.874
				c2.461-1.987,4.732-4.223,6.672-6.684c1.018-1.218,1.81-2.531,2.603-3.82c0.343-0.674,0.686-1.337,1.029-1.999
				c0.023-0.071,0.059-0.13,0.082-0.201c1.064-0.604,1.716-1.514,2.035-2.543c0.449-0.544,0.769-1.171,0.958-1.857l0.012-0.012
				c0.863-0.65,1.443-1.585,1.738-2.614c0.083,0.012,0.166,0.023,0.249,0.023l2.259,0.166l0.568,0.047
				C135.702,78.103,135.762,78.09,135.797,78.103z"/>
			<path fill="#38303F" d="M135.785,93.964c-0.911,1.242-2.011,2.639-3.336,4.141c0-0.379,0-0.733,0-1.076
				c-0.023-3.123,0.13-5.335,0.65-6.116c0.118-0.165,0.249-0.26,0.391-0.295C134.082,90.486,134.922,91.717,135.785,93.964z"/>
			<path fill="#38303F" d="M133.171,126.47c0.083,1.336,0.189,2.508,0.331,3.466c-2.046,2.52-4.377,5.086-6.979,7.617
				c-1.42,1.372-2.91,2.744-4.495,4.081c-0.083-1.987-0.308-4.294-0.71-6.802c0.497-0.414,0.982-0.852,1.467-1.277
				c3.975-3.561,7.393-7.18,10.208-10.599C133.041,124.222,133.1,125.405,133.171,126.47z"/>
			<path fill="#FF8300" d="M131.811,90.132l1.289,0.78c-0.521,0.781-0.674,2.993-0.65,6.116c0,0.343,0,0.697,0,1.076
				c-1.147,1.337-2.484,2.768-4.01,4.234c-3.667,3.537-8.339,7.405-13.935,11.072c-0.295-0.557-0.579-1.077-0.863-1.562
				c-0.745-1.254-1.455-2.307-2.094-3.123c0.426-0.236,0.84-0.485,1.266-0.733c1.432-0.84,2.839-1.786,4.259-2.721
				c1.372-1.018,2.803-1.976,4.128-3.123c2.721-2.164,5.312-4.684,7.594-7.582C129.941,93.207,130.899,91.682,131.811,90.132z"/>
			<path fill="#43B020" d="M132.733,111.719c0.059,4.129,0.13,7.984,0.26,11.237c-2.815,3.419-6.233,7.038-10.208,10.599
				c-0.484,0.426-0.97,0.863-1.467,1.277c-0.402-2.566-0.981-5.347-1.738-8.232c-0.828-2.945-1.774-5.713-2.78-8.174
				c6.092-4.282,11.024-8.907,14.703-13.225c0.354-0.414,0.698-0.827,1.029-1.241C132.591,106.36,132.662,108.975,132.733,111.719z"
				/>
			<path fill="#38303F" d="M132.449,98.104c0.012,1.738,0.048,3.702,0.083,5.855c-0.331,0.414-0.675,0.827-1.029,1.241
				c-3.679,4.317-8.611,8.942-14.703,13.225c-0.745-1.856-1.525-3.536-2.295-5.015c5.596-3.667,10.268-7.535,13.935-11.072
				C129.965,100.872,131.302,99.441,132.449,98.104z"/>
			<path fill="#38303F" d="M122.052,142.261c0.095,4.069-0.378,6.624-1.183,6.707c-0.71,0.083-1.538-1.608-2.473-4.46
				c1.266-0.946,2.473-1.904,3.632-2.874C122.04,141.847,122.052,142.06,122.052,142.261z"/>
			<path fill="#38303F" d="M121.318,134.832c0.402,2.508,0.627,4.814,0.71,6.802c-1.159,0.97-2.366,1.928-3.632,2.874
				c-0.165-0.496-0.331-1.017-0.496-1.585c-0.391-1.289-0.805-2.744-1.254-4.329C118.278,137.388,119.828,136.122,121.318,134.832z"
				/>
			<path fill="#38303F" d="M119.58,126.6c0.757,2.886,1.336,5.666,1.738,8.232c-1.49,1.29-3.04,2.556-4.672,3.762
				c-0.84-3.075-1.786-6.636-2.792-10.433c-0.639-2.295-1.266-4.483-1.845-6.541c1.537-0.946,3.016-1.917,4.424-2.934
				c0.118-0.083,0.248-0.178,0.366-0.261C117.806,120.887,118.752,123.654,119.58,126.6z"/>
			<path fill="#38303F" d="M118.396,144.508c-0.378,0.272-0.757,0.545-1.135,0.816c-1.739,1.219-3.585,2.401-5.56,3.442
				c-0.982,0.521-1.964,0.97-2.957,1.443c-1.006,0.461-1.976,0.993-3.04,1.384c-4.164,1.738-8.47,2.874-12.681,3.596h-0.012
				c-0.485-0.97-1.159-2.152-1.987-3.501c-0.367-0.604-0.757-1.242-1.183-1.917c0.733-0.094,1.49-0.2,2.235-0.319
				c3.75-0.733,7.582-1.773,11.355-3.347c0.958-0.344,1.869-0.853,2.804-1.266c0.91-0.438,1.856-0.853,2.721-1.302
				c1.738-0.898,3.383-1.916,4.991-3.004c0.923-0.627,1.821-1.266,2.697-1.94c0.449,1.585,0.863,3.04,1.254,4.329
				C118.065,143.491,118.231,144.012,118.396,144.508z"/>
			<path fill="#38303F" d="M114.505,113.411c0.77,1.479,1.55,3.158,2.295,5.015c-0.118,0.083-0.248,0.178-0.366,0.261
				c-1.408,1.017-2.887,1.987-4.424,2.934c-0.568-2.035-1.101-3.928-1.573-5.631c1.005-0.604,1.999-1.219,2.945-1.846
				C113.76,113.896,114.139,113.659,114.505,113.411z"/>
			<path fill="#43B020" d="M116.646,138.594c-0.876,0.675-1.774,1.313-2.697,1.94c-1.608,1.088-3.253,2.105-4.991,3.004
				c-0.864,0.449-1.811,0.863-2.721,1.302c-0.935,0.413-1.846,0.922-2.804,1.266c-3.773,1.573-7.605,2.613-11.355,3.347
				c-0.745,0.119-1.502,0.226-2.235,0.319c-1.94-3.182-4.354-7.132-6.979-11.426c-0.757-1.277-1.502-2.531-2.235-3.75
				c4.613-0.981,9.333-2.413,14.029-4.223c4.092-1.608,7.983-3.454,11.639-5.394c1.964-1.101,3.88-2.212,5.714-3.359
				c0.579,2.058,1.206,4.246,1.845,6.541C114.86,131.958,115.807,135.519,116.646,138.594z"/>
			<path fill="#38303F" d="M114.505,113.411c-0.366,0.248-0.745,0.484-1.123,0.732c-0.946,0.627-1.94,1.242-2.945,1.846
				c-0.237-0.887-0.462-1.738-0.675-2.52c-0.343-1.242-0.615-2.354-0.804-3.3c0.863-0.462,1.727-0.946,2.59-1.443
				c0.639,0.816,1.349,1.869,2.094,3.123C113.926,112.334,114.21,112.854,114.505,113.411z"/>
			<path fill="#38303F" d="M110.437,115.989c0.473,1.703,1.005,3.596,1.573,5.631c-1.834,1.147-3.75,2.259-5.714,3.359
				c-3.655,1.939-7.547,3.785-11.639,5.394c-4.696,1.81-9.416,3.241-14.029,4.223c-1.1-1.857-2.152-3.619-3.135-5.229
				c4.874-1.028,9.925-2.566,14.999-4.53c3.88-1.525,7.57-3.229,11.083-5.003C105.953,118.568,108.248,117.303,110.437,115.989z"/>
			<path fill="#38303F" d="M111.548,108.727c-0.863,0.497-1.727,0.981-2.59,1.443c-0.391-1.917-0.414-3.135,0.082-3.384
				c0.095-0.047,0.226-0.059,0.367-0.023C109.904,106.894,110.649,107.567,111.548,108.727z"/>
			<path fill="#FF8300" d="M109.762,113.47c0.213,0.781,0.438,1.633,0.675,2.52c-2.188,1.313-4.483,2.579-6.861,3.845
				c-3.513,1.774-7.203,3.478-11.083,5.003c-5.074,1.964-10.125,3.502-14.999,4.53c-1.786-2.934-3.359-5.405-4.625-7.097
				c7.026-1.183,14.727-3.135,22.735-6.115c4.399-1.645,8.883-3.597,13.354-5.985C109.146,111.116,109.419,112.228,109.762,113.47z"
				/>
			<path fill="#38303F" d="M107.869,104.161l1.538,2.602c-0.142-0.035-0.272-0.023-0.367,0.023
				c-0.496,0.249-0.473,1.467-0.082,3.384c-4.472,2.389-8.955,4.341-13.354,5.985c-8.009,2.98-15.709,4.933-22.735,6.115
				c-1.183-1.597-2.105-2.508-2.673-2.508l-0.331-1.62c7.274-1.455,15.365-3.727,23.764-7.086
				C98.359,109.152,103.174,106.894,107.869,104.161z"/>
			<path fill="#38303F" d="M93.013,155.189c0.745,1.502,1.029,2.496,0.65,2.851c-0.473,0.449-2.165-0.426-4.495-2.425
				C90.434,155.521,91.724,155.379,93.013,155.189z"/>
			<path fill="#38303F" d="M91.025,151.688c0.828,1.349,1.502,2.531,1.987,3.501c-1.289,0.189-2.579,0.331-3.845,0.426
				c-0.449-0.391-0.935-0.828-1.431-1.301c-1.184-1.136-2.461-2.531-3.785-4.129c1.928-0.035,3.892-0.165,5.891-0.414
				C90.269,150.446,90.658,151.085,91.025,151.688z"/>
			<path fill="#38303F" d="M87.737,154.314c0.496,0.473,0.981,0.91,1.431,1.301c-2.897,0.225-5.725,0.213-8.422,0.023
				c-4.944-0.414-9.439-1.396-13.438-2.59c-1.088-1.668-2.365-3.644-3.785-5.82c5.039,1.372,10.989,2.674,17.53,2.945
				c0.958,0.024,1.916,0.036,2.898,0.012C85.276,151.783,86.554,153.179,87.737,154.314z"/>
			<path fill="#38303F" d="M82.863,138.346c2.626,4.294,5.039,8.244,6.979,11.426c-1.999,0.249-3.963,0.379-5.891,0.414
				c-2.035-2.483-4.176-5.465-6.187-8.788c-1.171-1.976-2.224-3.915-3.146-5.784c1.976-0.249,3.986-0.592,6.009-1.018
				C81.361,135.814,82.106,137.068,82.863,138.346z"/>
			<path fill="#43B020" d="M83.952,150.186c-0.982,0.024-1.94,0.013-2.898-0.012c-6.541-0.271-12.491-1.573-17.53-2.945
				c-1.206-1.868-2.531-3.892-3.892-5.997c-0.745-1.194-1.479-2.342-2.212-3.454c-0.567-0.958-1.123-1.893-1.68-2.779
				c4.412,0.993,9.416,1.419,14.691,1.018c1.372-0.083,2.768-0.213,4.188-0.402c0.923,1.869,1.976,3.809,3.146,5.784
				C79.776,144.721,81.917,147.702,83.952,150.186z"/>
			<path fill="#38303F" d="M77.493,129.367c0.982,1.609,2.035,3.371,3.135,5.229c-2.022,0.426-4.033,0.769-6.009,1.018
				c-0.935-1.869-1.728-3.667-2.401-5.323C73.944,130.054,75.707,129.746,77.493,129.367z"/>
			<path fill="#38303F" d="M72.868,122.271c1.266,1.691,2.839,4.163,4.625,7.097c-1.786,0.379-3.549,0.687-5.275,0.923
				c-1.242-3.063-2.034-5.689-2.39-7.547C70.822,122.602,71.839,122.448,72.868,122.271z"/>
			<path fill="#38303F" d="M72.218,130.29c0.674,1.656,1.467,3.454,2.401,5.323c-1.42,0.189-2.815,0.319-4.188,0.402
				c-5.275,0.401-10.279-0.024-14.691-1.018c-0.095-0.154-0.201-0.319-0.296-0.474c-0.331-0.508-0.65-1.005-0.958-1.502
				c-0.296-0.497-0.567-0.97-0.84-1.443c-0.414-0.709-0.828-1.384-1.229-1.999c4.908,1.23,10.93,1.751,17.554,0.982
				C70.716,130.491,71.461,130.396,72.218,130.29z"/>
			<path fill="#38303F" d="M72.868,122.271c-1.029,0.178-2.046,0.331-3.04,0.473c-0.319-1.703-0.271-2.756,0.178-2.945
				c0.06-0.023,0.118-0.035,0.189-0.035C70.763,119.763,71.686,120.674,72.868,122.271z"/>
			<path fill="#FF8300" d="M72.218,130.29c-0.757,0.106-1.502,0.201-2.247,0.272c-6.624,0.769-12.646,0.248-17.554-0.982
				c-0.131-0.201-0.249-0.378-0.367-0.567c-1.763-2.993-3.146-4.909-3.975-4.909l0.118-0.84c1.23,0.166,2.544,0.296,3.939,0.379
				c3.631,0.201,7.783,0.142,12.325-0.272c1.728-0.153,3.525-0.366,5.37-0.627C70.184,124.601,70.976,127.227,72.218,130.29z"/>
			<path fill="#38303F" d="M69.864,118.143l0.331,1.62c-0.071,0-0.13,0.012-0.189,0.035c-0.449,0.189-0.497,1.242-0.178,2.945
				c-1.845,0.261-3.643,0.474-5.37,0.627c-4.542,0.414-8.694,0.474-12.325,0.272c-1.396-0.083-2.709-0.213-3.939-0.379
				c-1.999-0.26-3.772-0.615-5.322-0.981c-5.027-1.337-7.357-3.229-7.168-3.513c0.225-0.427,2.756,0.674,7.594,1.241
				c2.437,0.225,5.405,0.414,8.883,0.308c3.478-0.118,7.429-0.461,11.77-1.123C65.842,118.899,67.817,118.556,69.864,118.143z"/>
			<path fill="#38303F" d="M69.722,157.224c0.45,1.006,0.58,1.704,0.284,1.999c-0.284,0.296-0.958,0.143-1.952-0.401
				c-0.993-0.532-2.342-1.432-3.761-2.757c-1.799-1.549-3.785-3.667-5.784-6.21c0.769,0.331,1.573,0.663,2.413,0.994
				c1.951,0.757,4.08,1.525,6.387,2.2c0.06,0.095,0.118,0.188,0.178,0.283C68.456,154.953,69.272,156.219,69.722,157.224z"/>
			<path fill="#38303F" d="M63.523,147.229c1.42,2.177,2.697,4.152,3.785,5.82c-2.307-0.675-4.436-1.443-6.387-2.2
				c-0.84-0.331-1.645-0.663-2.413-0.994c-1.29-1.632-2.579-3.43-3.833-5.358c2.212,0.733,4.755,1.55,7.605,2.378
				C62.684,146.992,63.098,147.11,63.523,147.229z"/>
			<path fill="#38303F" d="M63.523,147.229c-0.426-0.118-0.84-0.236-1.242-0.354c-2.851-0.828-5.394-1.645-7.605-2.378
				c-0.012-0.023-0.035-0.047-0.047-0.07c-0.781-1.254-1.526-2.496-2.236-3.703c-0.65-1.241-1.229-2.472-1.786-3.631
				c-0.271-0.58-0.532-1.147-0.78-1.703c-0.213-0.58-0.426-1.136-0.627-1.68c-0.106-0.308-0.213-0.604-0.308-0.899
				c0.379,0.154,0.769,0.319,1.159,0.474c1.751,0.674,3.655,1.254,5.689,1.715c0.557,0.887,1.112,1.821,1.68,2.779
				c0.733,1.112,1.467,2.26,2.212,3.454C60.992,143.337,62.317,145.36,63.523,147.229z"/>
			<path fill="#38303F" d="M55.444,134.524c0.095,0.154,0.201,0.319,0.296,0.474c-2.034-0.461-3.938-1.041-5.689-1.715
				c-0.391-0.154-0.78-0.319-1.159-0.474c-0.26-0.757-0.497-1.467-0.698-2.141c-0.26-0.994-0.449-1.893-0.567-2.686
				c1.171,0.497,2.437,0.946,3.797,1.337c0.319,0.095,0.65,0.178,0.994,0.26c0.401,0.615,0.815,1.29,1.229,1.999
				c0.272,0.474,0.544,0.946,0.84,1.443C54.794,133.52,55.113,134.017,55.444,134.524z"/>
			<path fill="#38303F" d="M54.676,144.496c1.254,1.929,2.543,3.727,3.833,5.358c-4.176-1.786-7.44-3.524-9.759-4.885
				c-2.744-1.633-4.152-2.732-3.975-3.1c0.178-0.366,1.916,0.024,4.921,0.994C51.092,143.29,52.76,143.857,54.676,144.496z"/>
			<path fill="#38303F" d="M52.05,129.013c0.118,0.189,0.236,0.366,0.367,0.567c-0.344-0.082-0.675-0.165-0.994-0.26
				c-1.36-0.391-2.626-0.84-3.797-1.337c-0.379-2.271-0.248-3.679,0.308-3.856c0.047-0.012,0.095-0.023,0.142-0.023
				C48.903,124.104,50.287,126.02,52.05,129.013z"/>
			<path fill="#38303F" d="M48.193,130.669c0.201,0.674,0.438,1.384,0.698,2.141c-4.933-2.152-8.351-5.074-10.268-7.416
				c-0.271-0.308-0.521-0.604-0.769-0.876c-0.213-0.283-0.391-0.579-0.567-0.84c-0.344-0.532-0.615-0.981-0.816-1.372
				c-0.402-0.757-0.532-1.206-0.367-1.324c0.154-0.131,0.604,0.07,1.278,0.556c0.343,0.248,0.745,0.556,1.194,0.935
				c0.236,0.189,0.461,0.402,0.733,0.615c0.284,0.188,0.579,0.401,0.887,0.614c1.751,1.349,4.224,2.958,7.429,4.282
				C47.744,128.776,47.934,129.675,48.193,130.669z"/>
		</g>
	</g>
	<g>
		<path fill-rule="evenodd" clip-rule="evenodd" fill="#FFFFFF" d="M403.104,99.276c-0.883-10.182-9.567-13.358-15.921-11.711
			c-6.854,1.779-12.309,5.722-16.896,11.015c-5.091,5.875-7.441,12.923-8.572,20.491c-0.408,2.734-1.021,5.424-3.071,7.465
			c-2.882,2.87-5.746,5.752-8.751,8.491c-3.59,3.272-7.768,2.061-9.274-2.581c-1.488-4.584-0.341-8.523,2.854-12.031
			c8.089-8.883,16.239-17.717,24.177-26.736c5.362-6.095,9.371-13.04,11.519-20.948c1.07-3.942,0.899-7.779-1.27-11.358
			c-1.235-2.036-2.858-2.627-5.084-1.825c-0.967,0.348-1.895,0.859-2.77,1.408c-4.482,2.809-8.353,6.341-11.915,10.226
			c-8.656,9.44-14.974,20.373-20.481,31.847c-1.898,3.954-3.895,7.895-6.247,11.586c-4.618,7.241-11.342,11.629-19.714,13.486
			c-3.585,0.798-7.214-0.876-8.312-3.933c2.531-1.218,5.048-2.518,7.634-3.659c6.717-2.966,12.14-7.438,16.14-13.606
			c2.459-3.797,3.46-7.938,2.791-12.437c-0.414-2.778-2.297-4.982-4.735-5.404c-3.983-0.689-7.915-0.489-11.722,0.996
			c-9.318,3.637-15.162,10.687-19.02,19.594c-2.77,6.396-3.076,12.995-1.122,19.685c0.515,1.766,1.307,3.416,2.975,4.342
			c5.729,3.178,11.801,4.483,18.31,3.1c4.476-0.952,8.344-3.226,12.147-5.634c0.685-0.434,1.398-0.816,2.214-1.286
			c0.142,1.485,0.268,2.706,0.375,3.928c0.722,8.248,5.574,12.734,13.851,12.777c5.845,0.031,10.526-2.484,14.608-6.506
			c2.286-2.254,4.805-4.27,7.392-6.546c1.229,0.524,3.198,1.311,5.122,2.197c4.137,1.909,8.246,1.69,12.361-0.032
			c10.103-4.234,16.017-11.866,19.185-22.18c0.768-2.5,1.12-5.161,1.12-7.748c0-1.703,0-3.406,0-5.109
			C403,100.184,403.146,99.734,403.104,99.276z M370.554,71.181c-0.65,1.672-1.142,3.23-1.845,4.69
			c-2.975,6.168-7.027,11.62-11.36,16.876c-2.303,2.792-4.669,5.536-7.136,8.453C350.227,95.131,365.634,72.304,370.554,71.181z
			 M314.211,98.07c0.897-0.653,1.946-1.179,3.003-1.508c1.437-0.446,2.907,0.437,3.06,1.914c0.125,1.221,0.068,2.595-0.375,3.716
			c-2.674,6.749-8.061,10.193-14.854,11.813c-0.63,0.15-1.281,0.209-2.219,0.357C305.631,107.963,308.65,102.118,314.211,98.07z
			 M382.085,124.784c-5.239,2.972-9.998,0.074-10.142-5.989c-0.213-8.957,4.672-16.495,12.828-20.603
			c5.32-2.679,9.454,0.499,9.393,8.317C393.361,113.673,389.646,120.495,382.085,124.784z"/>
		<path fill-rule="evenodd" clip-rule="evenodd" fill="#FFFFFF" d="M299.757,88.413c2.652-0.88,5.376-0.962,8.132-0.812
			c1.946,0.104,3.743-0.297,4.736-2.176c1.088-2.055,1.061-4.254-0.056-6.243c-0.406-0.722-1.514-1.182-2.397-1.458
			c-0.723-0.228-1.6-0.091-2.39,0.028c-4.435,0.677-8.867,1.384-13.294,2.105c-3.502,0.569-5.802-0.469-7.379-3.385
			c-1.153-2.134-3.388-3.021-6.084-2.416c-2.365,0.53-3.129,1.531-3.203,4.44c-0.074,2.883-0.14,5.773-0.074,8.656
			c0.148,6.513-1.328,12.669-4.833,18.092c-3.453,5.346-7.441,10.353-11.249,15.465c-0.943,1.271-2.329,1.185-3.931,0.758
			c0.646-2.113,1.164-4.17,1.897-6.147c2.794-7.525,5.672-15.019,8.477-22.54c0.376-1.005,0.664-2.082,0.748-3.146
			c0.147-1.859-0.673-2.837-2.465-2.558c-2.014,0.313-3.979,1.028-5.912,1.718c-1.345,0.479-2.606,1.192-4.065,0.53
			c-4.175-1.897-8.248-1.487-12.318,0.394c-10.712,4.952-18.241,12.625-22.598,23.041c-1.438-2.968-3.657-5.837-6.805-8.499
			c-2.868-2.426-5.901-4.657-8.812-7.039c-2.273-1.856-4.62-3.662-6.681-5.744c-6.545-6.605-7.665-13.023-3.752-21.474
			c4.508-9.731,11.348-17.666,19.345-24.682c5.809-5.101,12.058-9.45,19.64-11.501c4.865-1.314,9.697-1.668,14.42,0.603
			c3.334,1.604,4.837,4.003,4.012,7.623c-0.703,3.095-1.574,6.3-3.128,9.031c-7.691,13.519-17.3,25.404-30.444,34.09
			c-1.271,0.836-1.647,1.927-1.333,3.34c0.766,3.419,4.841,5.919,8.077,4.603c2.369-0.964,4.719-2.27,6.688-3.891
			c12.322-10.142,21.639-22.314,28.176-36.923c1.702-3.81,2.1-8.061,3.1-12.107c0-1.093,0-2.19,0-3.284
			c0-0.514,0.198-1.019,0.135-1.54c-0.493-4.059-2.464-6.886-6.009-8.719c-4.385-2.268-8.894-3.806-13.841-4.235
			c-0.527-0.049-0.921-0.411-1.44-0.411c-1.231,0-2.467,0-3.694,0c-3.746,1-7.562,1.274-11.218,2.31
			c-8.985,2.543-16.742,7.408-23.544,13.715c-11.045,10.241-19.271,22.369-23.223,37.038c-2.92,10.843,0.488,20.024,9.48,26.785
			c4.207,3.162,8.472,6.259,12.568,9.561c2.617,2.103,4.961,4.539,5.92,7.938c1.639,5.808-0.609,11.767-5.826,15.446
			c-7.219,5.09-18.792,4.339-25.082-1.869c-1.537-1.518-2.748-3.602-3.479-5.651c-1.122-3.144-0.268-6.085,2.33-8.341
			c2.369-2.049,2.52-4.613,1.593-7.305c-0.992-2.867-2.867-5.331-5.988-5.498c-1.705-0.092-3.82,1.075-5.194,2.296
			c-3.623,3.216-5.268,7.599-6.019,12.297c-0.104,0.669-0.47,1.327-0.47,1.989c0,0.959,0,1.919,0,2.874
			c0,0.521,0.348,1.035,0.425,1.559c1.356,9.233,6.11,16.056,14.788,19.688c3.49,1.461,7.262,2.694,11,3.091
			c12.383,1.319,23.242-2.15,30.743-12.507c1.001-1.377,1.885-2.809,2.641-4.271c1.49,2.71,3.894,4.412,7.054,5.227
			c5.629,1.456,10.649-0.224,15.243-3.452c3.712-2.607,3.345-2.69,7.163-0.241c3.213,2.062,6.443,1.963,9.533-0.264
			c1.299-0.934,2.57-1.951,3.684-3.095c3.135-3.22,6.188-6.518,9.255-9.802c0.314-0.335,0.504-0.786,0.75-1.182
			c0.177,0.089,0.354,0.179,0.53,0.269c0.255,1.651,0.527,3.299,0.762,4.95c0.537,3.745,1.229,4.458,4.93,5.007
			c2.654,0.396,4.305-0.649,4.979-3.229c0.523-2.01,1.051-4.026,1.428-6.065c1.276-6.873,2.437-13.766,3.733-20.632
			C290.758,94.734,293.836,90.38,299.757,88.413z M253.226,101.175c-1.183,11.21-6.318,20.118-15.705,26.482
			c-1.466,0.993-3.027,1.727-4.738,0.69c-1.876-1.133-3.101-2.742-3.098-6.058c0.674-2.199,1.477-5.354,2.605-8.391
			c2.456-6.606,6.437-12.151,12.076-16.447c0.486-0.371,0.979-0.749,1.514-1.045c1.737-0.959,3.551-1.434,5.354-0.248
			C253.032,97.341,253.428,99.261,253.226,101.175z"/>
		<path fill-rule="evenodd" clip-rule="evenodd" fill="#FFFFFF" d="M331.696,83.317c3.136-4.083,6.13-8.285,8.982-12.568
			c1.104-1.659,1.721-3.655,2.457-5.537c0.146-0.377-0.022-1.156-0.313-1.352c-0.32-0.215-1.058-0.134-1.42,0.106
			c-0.568,0.381-1.043,0.956-1.439,1.528c-4.157,5.976-8.295,11.964-12.423,17.959c-0.372,0.54-0.766,1.115-0.938,1.731
			c-0.185,0.66-0.115,1.388-0.158,2.088c0.226,0.112,0.45,0.226,0.676,0.339C328.662,86.192,330.438,84.955,331.696,83.317z"/>
		<path fill-rule="evenodd" clip-rule="evenodd" fill="#FFFFFF" d="M252.609,80.467c1.963,0.031,3.531-0.305,4.552-1.726
			c3.964-5.521,7.889-11.072,11.78-16.645c1.034-1.48,1.117-3.139,0.302-5.183c-1.017,0.942-2.062,1.629-2.735,2.581
			c-4.196,5.936-8.327,11.92-12.43,17.919C253.486,78.278,253.151,79.319,252.609,80.467z"/>
		<path fill-rule="evenodd" clip-rule="evenodd" fill="#FFFFFF" d="M377.75,142.562c-2.008,0.235-3.724,1.052-5.024,2.599
			c-0.806,0.956-1.85,1.933-1.336,3.361c0.541,1.506,1.873,2.174,3.319,2.594c0.4,0.116,0.84,0.095,1.263,0.136
			c0.03,0.077,0.058,0.153,0.088,0.229c1.409-0.482,2.884-0.834,4.214-1.481c1.615-0.783,2.174-3.02,1.459-4.987
			C381.096,143.267,379.576,142.349,377.75,142.562z"/>
	</g>
</g>
<g id="Layer_4">
	<g id="XMLID_19_">
		<g id="XMLID_22_">
			<g>
				<path fill="#38303F" d="M79.473,116.075c-0.471,0.052-0.915,0.183-1.307,0.326c-0.405,0.014-0.784,0.053-1.137,0.145v-0.014
					c-5.567-6.26-16.807-17.616-21.027-20.661l-0.589-0.418c-5.005-3.634-11.866-8.612-15.904-9.292
					c-3.41-0.588-7.488-3.477-9.932-5.201c-0.588-0.418-1.255-0.889-1.529-1.046c-0.274,0.039-0.771,0.223-1.359,0.523
					c0.667,0.849,1.255,1.698,1.765,2.456c0.313,0.484,0.183,1.15-0.301,1.464c-0.261,0.17-0.575,0.223-0.85,0.144
					c-0.248-0.065-0.47-0.209-0.627-0.444c-0.51-0.771-1.11-1.646-1.79-2.482c-0.628,0.483-1.242,1.02-1.699,1.62
					c-0.353,0.458-1.02,0.549-1.477,0.196c-0.471-0.366-0.549-1.032-0.196-1.49c1.725-2.247,5.541-4.443,7.044-4.064
					c0.418,0.118,0.901,0.444,2.248,1.398c2.287,1.621,6.129,4.353,9.057,4.836c4.521,0.797,11.617,5.907,16.793,9.657l0.588,0.432
					C61.883,97.505,74.128,109.933,79.473,116.075z"/>
				<path fill="#C69C6D" d="M67.894,118.702c-0.666,0.013-1.28,0.144-1.816,0.34c-0.483,0.025-0.94,0.091-1.346,0.209
					c-0.262,0.025-0.497,0.065-0.731,0.117h-0.014c-0.418,0.026-0.797,0.092-1.163,0.196c-0.078-0.014-0.156-0.014-0.235-0.014
					c-0.549,0-1.02,0.065-1.489,0.196h-0.014c-0.025,0-0.039,0-0.078,0c-0.327,0-0.641,0.026-0.94,0.065
					c0.039-0.432-0.17-0.836-0.589-1.032c-0.627-0.301-2.587-1.49-3.28-1.921c-0.51-0.313-1.163-0.157-1.463,0.34
					c-0.301,0.496-0.145,1.149,0.353,1.463c0.183,0.118,1.425,0.85,2.418,1.451v0.013c-0.21-0.039-0.432-0.052-0.654-0.052
					c-0.47,0-0.914,0.052-1.332,0.156c-0.21-0.025-0.419-0.025-0.641-0.025c-0.471,0-0.915,0.052-1.32,0.156
					c-0.287-0.039-0.601-0.078-0.915-0.078c-0.379,0-0.719,0.052-1.045,0.104c-0.209-0.026-0.444-0.039-0.68-0.039
					c-0.013,0-0.026,0-0.039,0c-3.293-2.235-5.62-4.156-5.672-4.195c-0.039-0.039-0.078-0.078-0.131-0.104
					c-0.235-0.144-0.51-0.34-0.836-0.588c-0.065-0.209-0.17-0.379-0.288-0.51c-0.195-0.196-0.444-0.301-0.705-0.313
					c-4.169-3.607-12.193-12.167-15.774-16.741c-0.078-0.209-0.209-0.392-0.392-0.51c-0.811-1.059-1.32-1.855-1.411-2.234
					c-0.602-2.836-3.595-9.579-3.712-9.867c-0.183-0.392-0.562-0.627-0.967-0.627l0.719-1.268c0.457,0.353,1.124,0.262,1.477-0.196
					c0.457-0.601,1.071-1.137,1.699-1.62c0.68,0.836,1.28,1.712,1.79,2.482c0.157,0.235,0.379,0.379,0.627,0.444
					c0.274,0.079,0.589,0.026,0.85-0.144c0.483-0.313,0.614-0.979,0.301-1.464c-0.51-0.758-1.098-1.607-1.765-2.456
					c0.589-0.301,1.085-0.484,1.359-0.523c0.274,0.157,0.941,0.628,1.529,1.046c2.443,1.725,6.521,4.613,9.932,5.201
					c4.038,0.68,10.899,5.658,15.904,9.292l0.589,0.418c4.221,3.045,15.46,14.401,21.027,20.661v0.014
					c-0.602,0.117-1.138,0.353-1.595,0.666c-0.327,0.026-0.653,0.104-0.954,0.196c-0.013,0-0.013,0-0.026,0
					c-0.47,0.052-0.901,0.17-1.294,0.313c-0.483,0.039-0.928,0.131-1.319,0.262c-0.602,0.025-1.137,0.156-1.621,0.339
					c-0.052,0.026-0.13,0.026-0.183,0.053c-0.013,0-0.013,0-0.026,0c-0.601,0.026-1.149,0.131-1.633,0.301
					c-0.053,0.013-0.092,0.026-0.131,0.039h-0.014c-0.078,0-0.156-0.013-0.248-0.013C67.959,118.702,67.92,118.702,67.894,118.702z
					 M69.881,115.813c0.404-0.418,0.392-1.085-0.026-1.489c-1.007-0.98-3.02-3.137-3.032-3.163
					c-0.405-0.432-1.071-0.444-1.503-0.052c-0.431,0.392-0.457,1.071-0.052,1.489c0.078,0.104,2.064,2.234,3.11,3.241
					c0.13,0.131,0.3,0.222,0.47,0.262C69.201,116.192,69.606,116.102,69.881,115.813z M63.974,115.631
					c0.418-0.418,0.418-1.085,0.013-1.503c-0.719-0.719-3.162-3.358-3.188-3.385c-0.393-0.432-1.059-0.458-1.49-0.065
					c-0.431,0.392-0.457,1.071-0.052,1.503c0.091,0.104,2.482,2.692,3.228,3.437c0.144,0.145,0.313,0.235,0.483,0.288
					C63.32,115.983,63.699,115.905,63.974,115.631z M61.817,105.358c0.392-0.444,0.34-1.11-0.104-1.489
					c-0.928-0.823-4.457-3.084-4.849-3.346c-0.497-0.313-1.15-0.17-1.464,0.313c-0.313,0.497-0.183,1.15,0.313,1.464
					c1.046,0.68,3.908,2.562,4.613,3.162c0.131,0.118,0.274,0.196,0.432,0.235C61.138,105.79,61.556,105.673,61.817,105.358z
					 M56.289,113.553c0.274-0.522,0.092-1.163-0.432-1.438c-0.353-0.196-1.946-1.398-3.279-2.444
					c-0.458-0.365-1.124-0.287-1.478,0.17c-0.365,0.471-0.287,1.138,0.17,1.49c0.471,0.379,2.889,2.274,3.581,2.653
					c0.078,0.039,0.157,0.065,0.248,0.091C55.558,114.193,56.054,113.984,56.289,113.553z M55.113,106.104
					c0.405-0.418,0.392-1.085-0.026-1.489c-1.098-1.059-4.052-3.098-4.169-3.189c-0.483-0.326-1.15-0.209-1.477,0.274
					c-0.327,0.483-0.209,1.15,0.274,1.478c0.811,0.562,3.097,2.182,3.895,2.953c0.144,0.131,0.301,0.222,0.483,0.274
					C54.446,106.496,54.839,106.392,55.113,106.104z M51.833,98.472c0.431-0.393,0.47-1.059,0.078-1.49
					c-0.483-0.535-2.627-1.934-3.516-2.509c-0.496-0.327-1.149-0.183-1.464,0.313c-0.313,0.497-0.17,1.15,0.314,1.464
					c1.293,0.823,2.836,1.882,3.084,2.144c0.156,0.17,0.34,0.274,0.522,0.313C51.192,98.799,51.559,98.72,51.833,98.472z
					 M49.833,114.978c0.144-0.536-0.156-1.072-0.666-1.255c-0.327-0.209-1.359-1.216-2.144-2.052
					c-0.392-0.432-1.059-0.457-1.489-0.053c-0.432,0.393-0.458,1.072-0.065,1.49c2.261,2.418,2.836,2.574,3.084,2.627
					C49.114,115.879,49.689,115.539,49.833,114.978z M48.526,106.352c0.432-0.392,0.471-1.071,0.078-1.503
					c-0.457-0.509-2.548-2.025-3.437-2.652c-0.471-0.34-1.137-0.235-1.477,0.248c-0.34,0.471-0.235,1.137,0.248,1.477
					c1.294,0.915,2.836,2.078,3.084,2.34c0.144,0.17,0.327,0.274,0.522,0.326C47.886,106.666,48.252,106.587,48.526,106.352z
					 M44.018,98.824c0.549-0.195,0.85-0.797,0.653-1.358c-0.731-2.092-4.43-4.3-5.162-4.731c-0.496-0.287-1.149-0.117-1.438,0.393
					c-0.301,0.51-0.117,1.163,0.379,1.45c1.542,0.889,3.869,2.588,4.222,3.594c0.117,0.353,0.405,0.588,0.731,0.68
					C43.6,98.903,43.821,98.89,44.018,98.824z M43.717,91.506c0.327-0.483,0.184-1.149-0.313-1.464
					c-1.02-0.666-3.868-1.737-4.194-1.868c-0.536-0.196-1.163,0.078-1.373,0.627c-0.195,0.536,0.079,1.15,0.628,1.359
					c1.124,0.431,3.176,1.255,3.803,1.659c0.092,0.065,0.196,0.118,0.301,0.145C42.998,92.068,43.469,91.898,43.717,91.506z
					 M43.691,108.312c0.287-0.497,0.104-1.15-0.393-1.451c-0.392-0.235-2.562-2.143-4.352-3.79c-0.418-0.392-1.098-0.365-1.49,0.065
					c-0.405,0.432-0.365,1.098,0.065,1.49c1.202,1.11,4.064,3.725,4.771,4.104c0.065,0.039,0.156,0.065,0.235,0.092
					C42.973,108.939,43.456,108.743,43.691,108.312z M36.033,99.883c0.457-0.365,0.549-1.02,0.195-1.489
					c-1.268-1.621-2.247-2.784-2.286-2.836c-0.38-0.444-1.046-0.51-1.49-0.131c-0.457,0.379-0.51,1.045-0.131,1.503
					c0.014,0,0.993,1.176,2.222,2.757c0.157,0.196,0.353,0.327,0.575,0.38C35.419,100.145,35.759,100.092,36.033,99.883z
					 M34.047,91.598c0.535-0.223,0.797-0.837,0.574-1.386c-0.379-0.889-1.868-3.188-2.038-3.449
					c-0.327-0.484-0.98-0.628-1.464-0.301c-0.497,0.313-0.627,0.979-0.313,1.464c0.601,0.914,1.634,2.561,1.855,3.097
					c0.131,0.327,0.405,0.549,0.719,0.627C33.589,91.702,33.824,91.689,34.047,91.598z M29.629,92.434
					c0.444-0.392,0.471-1.059,0.079-1.489c-0.536-0.614-1.49-2.549-1.974-3.62c-0.235-0.536-0.862-0.771-1.398-0.536
					c-0.522,0.235-0.771,0.862-0.536,1.398c0.145,0.313,1.386,3.11,2.34,4.169c0.144,0.157,0.326,0.262,0.522,0.313
					C29.002,92.748,29.368,92.683,29.629,92.434z"/>
				<path fill="#38303F" d="M69.854,114.324c0.418,0.404,0.431,1.071,0.026,1.489c-0.274,0.288-0.68,0.379-1.033,0.288
					c-0.17-0.04-0.34-0.131-0.47-0.262c-1.046-1.007-3.032-3.137-3.11-3.241c-0.405-0.418-0.379-1.098,0.052-1.489
					c0.432-0.393,1.098-0.38,1.503,0.052C66.835,111.188,68.848,113.344,69.854,114.324z"/>
				<path fill="#38303F" d="M63.986,114.128c0.405,0.418,0.405,1.085-0.013,1.503c-0.274,0.274-0.653,0.353-1.007,0.274
					c-0.17-0.053-0.34-0.144-0.483-0.288c-0.745-0.744-3.137-3.332-3.228-3.437c-0.405-0.432-0.379-1.111,0.052-1.503
					c0.432-0.393,1.098-0.366,1.49,0.065C60.824,110.77,63.268,113.409,63.986,114.128z"/>
				<path fill="#38303F" d="M61.713,103.869c0.444,0.379,0.496,1.045,0.104,1.489c-0.262,0.314-0.68,0.432-1.059,0.34
					c-0.157-0.039-0.301-0.117-0.432-0.235c-0.705-0.601-3.567-2.482-4.613-3.162c-0.496-0.313-0.627-0.967-0.313-1.464
					c0.313-0.483,0.967-0.627,1.464-0.313C57.256,100.785,60.785,103.046,61.713,103.869z"/>
				<path fill="#38303F" d="M59.478,118.78c0.419,0.196,0.628,0.601,0.589,1.032c-0.288,0.053-0.562,0.118-0.824,0.209
					c-0.064,0-0.144-0.013-0.222-0.013c-0.457,0-0.876,0.052-1.255,0.144c-0.078-0.013-0.17-0.026-0.261-0.026v-0.013
					c-0.993-0.602-2.235-1.333-2.418-1.451c-0.497-0.313-0.653-0.967-0.353-1.463c0.3-0.497,0.953-0.653,1.463-0.34
					C56.891,117.29,58.851,118.479,59.478,118.78z"/>
				<path fill="#38303F" d="M55.857,112.115c0.523,0.274,0.706,0.915,0.432,1.438c-0.235,0.432-0.731,0.641-1.189,0.522
					c-0.091-0.025-0.17-0.052-0.248-0.091c-0.692-0.379-3.11-2.274-3.581-2.653c-0.457-0.353-0.535-1.02-0.17-1.49
					c0.354-0.457,1.02-0.535,1.478-0.17C53.911,110.717,55.505,111.919,55.857,112.115z"/>
				<path fill="#38303F" d="M55.087,104.614c0.418,0.404,0.432,1.071,0.026,1.489c-0.274,0.288-0.667,0.393-1.02,0.301
					c-0.183-0.053-0.34-0.144-0.483-0.274c-0.798-0.771-3.084-2.392-3.895-2.953c-0.483-0.327-0.602-0.994-0.274-1.478
					c0.326-0.483,0.993-0.601,1.477-0.274C51.035,101.517,53.989,103.556,55.087,104.614z"/>
				<path fill="#38303F" d="M51.911,96.981c0.392,0.432,0.353,1.098-0.078,1.49c-0.274,0.248-0.641,0.327-0.98,0.235
					c-0.183-0.039-0.366-0.144-0.522-0.313c-0.248-0.262-1.791-1.32-3.084-2.144c-0.484-0.313-0.628-0.967-0.314-1.464
					c0.314-0.496,0.968-0.641,1.464-0.313C49.284,95.048,51.428,96.446,51.911,96.981z"/>
				<path fill="#38303F" d="M50.879,120.349c-0.313,0-0.628,0.026-0.915,0.078c-0.013,0-0.013,0-0.026,0
					c-0.64-0.065-1.215-0.039-1.738,0.078c-0.209-0.025-0.418-0.025-0.64-0.025c-0.079,0-0.157,0.013-0.223,0.013
					c-1.149-0.85-2.078-1.581-2.679-2.064c-0.575-0.562-1.294-1.046-2.144-1.412c-0.078-0.052-0.144-0.117-0.235-0.156
					c-0.444-0.523-0.993-0.993-1.633-1.386c-0.301-0.261-0.654-0.496-1.02-0.731c-0.327-0.327-0.706-0.628-1.124-0.902
					c-2.078-2.482-4.038-5.083-6.338-7.384c-0.523-0.522-1.138-1.045-1.804-1.567c-0.562-0.589-1.111-1.189-1.687-1.791
					c-1.829-1.868-3.019-4.155-4.548-6.26c0.014,0,0.04,0,0.053,0c-0.313-0.51-0.51-0.94-0.575-1.241
					c-0.562-2.614-3.555-9.384-3.594-9.448c-0.235-0.536,0.013-1.163,0.549-1.398c0.144-0.065,0.288-0.092,0.432-0.092
					c0.405,0,0.784,0.235,0.967,0.627c0.117,0.288,3.11,7.031,3.712,9.867c0.091,0.379,0.601,1.176,1.411,2.234
					c0.183,0.118,0.313,0.301,0.392,0.51c3.581,4.574,11.605,13.134,15.774,16.741c0.261,0.013,0.51,0.117,0.705,0.313
					c0.118,0.131,0.223,0.301,0.288,0.51c0.326,0.248,0.601,0.444,0.836,0.588c0.053,0.026,0.092,0.065,0.131,0.104
					C45.259,116.192,47.586,118.113,50.879,120.349z"/>
				<path fill="#38303F" d="M49.167,113.723c0.51,0.183,0.81,0.719,0.666,1.255c-0.144,0.562-0.719,0.901-1.28,0.758
					c-0.248-0.053-0.823-0.209-3.084-2.627c-0.393-0.418-0.366-1.098,0.065-1.49c0.431-0.404,1.098-0.379,1.489,0.053
					C47.808,112.507,48.84,113.514,49.167,113.723z"/>
				<path fill="#38303F" d="M48.604,104.849c0.393,0.432,0.354,1.111-0.078,1.503c-0.274,0.235-0.641,0.314-0.98,0.235
					c-0.195-0.052-0.379-0.156-0.522-0.326c-0.248-0.262-1.79-1.425-3.084-2.34c-0.483-0.34-0.588-1.006-0.248-1.477
					c0.34-0.483,1.006-0.588,1.477-0.248C46.057,102.823,48.147,104.34,48.604,104.849z"/>
				<path fill="#38303F" d="M44.671,97.466c0.196,0.562-0.104,1.163-0.653,1.358c-0.196,0.065-0.418,0.079-0.614,0.026
					c-0.326-0.092-0.614-0.327-0.731-0.68c-0.353-1.006-2.68-2.705-4.222-3.594c-0.496-0.287-0.68-0.94-0.379-1.45
					c0.288-0.51,0.941-0.68,1.438-0.393C40.241,93.166,43.939,95.374,44.671,97.466z"/>
				<path fill="#38303F" d="M43.403,90.042c0.497,0.314,0.641,0.98,0.313,1.464c-0.248,0.393-0.719,0.562-1.149,0.458
					c-0.104-0.026-0.209-0.079-0.301-0.145c-0.627-0.404-2.679-1.229-3.803-1.659c-0.549-0.209-0.823-0.823-0.628-1.359
					c0.21-0.549,0.837-0.823,1.373-0.627C39.535,88.305,42.384,89.376,43.403,90.042z"/>
				<path fill="#38303F" d="M43.299,106.861c0.497,0.301,0.68,0.954,0.393,1.451c-0.235,0.431-0.719,0.627-1.163,0.51
					c-0.079-0.026-0.17-0.053-0.235-0.092c-0.706-0.379-3.568-2.993-4.771-4.104c-0.431-0.393-0.471-1.059-0.065-1.49
					c0.393-0.431,1.072-0.457,1.49-0.065C40.737,104.719,42.907,106.626,43.299,106.861z"/>
				<path fill="#38303F" d="M36.229,98.394c0.354,0.47,0.262,1.124-0.195,1.489c-0.274,0.209-0.614,0.262-0.915,0.184
					c-0.223-0.053-0.418-0.184-0.575-0.38c-1.229-1.581-2.208-2.757-2.222-2.757c-0.379-0.458-0.326-1.124,0.131-1.503
					c0.444-0.379,1.11-0.313,1.49,0.131C33.981,95.609,34.961,96.772,36.229,98.394z"/>
				<path fill="#38303F" d="M34.621,90.212c0.223,0.549-0.039,1.163-0.574,1.386c-0.223,0.092-0.458,0.104-0.667,0.052
					c-0.313-0.078-0.588-0.3-0.719-0.627c-0.222-0.536-1.255-2.183-1.855-3.097c-0.313-0.484-0.184-1.15,0.313-1.464
					c0.483-0.327,1.137-0.184,1.464,0.301C32.753,87.023,34.242,89.323,34.621,90.212z"/>
				<path fill="#38303F" d="M29.708,90.944c0.392,0.431,0.365,1.098-0.079,1.489c-0.261,0.249-0.627,0.314-0.967,0.235
					c-0.196-0.052-0.379-0.156-0.522-0.313c-0.954-1.059-2.195-3.855-2.34-4.169c-0.234-0.536,0.014-1.163,0.536-1.398
					c0.536-0.235,1.163,0,1.398,0.536C28.218,88.396,29.172,90.33,29.708,90.944z"/>
			</g>
		</g>
	</g>
	<g>
		<g>
			<path fill="#FFFFFF" d="M72.097,130.321c-0.117,0.02-0.266-0.37-0.609-1.018c-0.321-0.656-0.922-1.544-1.58-2.759
				c-0.329-0.597-0.655-1.341-0.894-2.121l-0.059-0.239l-0.027-0.114c-0.016-0.004-0.031,0.008-0.044,0.01
				c0.123-0.004-0.54,0.094-0.936,0.155c-1.785,0.24-3.756,0.444-5.833,0.521c-4.152,0.166-7.924-0.077-10.613-0.52
				c-2.689-0.431-4.305-0.927-4.27-1.106c0.038-0.223,1.708-0.097,4.379,0.062c2.674,0.17,6.367,0.242,10.44,0.082
				c2.038-0.074,3.974-0.235,5.732-0.396c0.563-0.063,1.114-0.125,1.647-0.187c0.188-0.015,0.405-0.062,0.564-0.049l0.071,0.496
				c0.046,0.324,0.091,0.643,0.136,0.956c0.173,0.753,0.395,1.383,0.652,2.001c0.51,1.217,0.996,2.23,1.172,3.004
				C72.224,129.86,72.182,130.312,72.097,130.321z"/>
		</g>
		<g>
			<path fill="#FFFFFF" d="M110.33,116.169c-0.122,0.013-0.297-0.551-0.723-1.505c-0.237-0.492-0.521-1.081-0.848-1.758
				c-0.081-0.177-0.172-0.352-0.253-0.545l-0.116-0.305l-0.053-0.118c-0.04-0.053-0.048-0.175-0.105-0.154l-0.189,0.131
				c-3.174,1.947-8.045,4.441-13.563,6.477c-5.548,2.038-10.771,3.309-14.596,3.873c-1.9,0.355-3.468,0.453-4.542,0.547
				c-1.08,0.076-1.679,0.071-1.692-0.03c-0.081-0.511,9.397-1.685,20.317-5.784c1.378-0.467,2.686-1.022,3.953-1.544
				c0.636-0.259,1.26-0.512,1.873-0.761c0.599-0.275,1.185-0.546,1.76-0.81c1.137-0.542,2.256-0.984,3.246-1.516
				c1.023-0.513,1.979-0.994,2.854-1.435c0.358-0.182,0.709-0.36,1.05-0.535l0.125-0.062l0.042,0.138l0.081,0.271
				c0.056,0.177,0.108,0.352,0.16,0.523c0.077,0.266,0.151,0.522,0.226,0.772c0.065,0.19,0.131,0.374,0.193,0.553
				c0.259,0.705,0.465,1.349,0.621,1.872C110.431,115.538,110.413,116.169,110.33,116.169z"/>
		</g>
		<g>
			<path fill="#FFFFFF" d="M131.609,98.729c-0.215-0.058-0.088-2.059,0.116-5.303l0.016-0.312c0.007-0.11,0.014-0.224,0.009-0.221
				l-0.009-0.145c-0.009-0.086-0.017-0.149-0.026-0.193c-0.002-0.008-0.002-0.027-0.01-0.021l-0.046,0.073l-0.077,0.126
				l-0.056,0.098l-0.02,0.038l-0.015,0.023l-0.125,0.164c-1.369,1.711-3.003,3.482-4.828,5.221
				c-3.655,3.472-7.358,6.15-10.128,7.918c-1.384,0.892-2.544,1.546-3.376,1.948c-0.823,0.412-1.301,0.599-1.354,0.51
				c-0.249-0.396,6.653-4.645,13.834-11.452c1.787-1.7,3.407-3.401,4.797-5.014c0.595-0.738,1.174-1.458,1.738-2.158
				c0.289-0.359,0.575-0.714,0.857-1.062l0.412-0.507c0.053-0.09,0.007,0.07,0.011,0.098l-0.018,0.176l-0.038,0.343
				c-0.097,0.89-0.191,1.749-0.283,2.576c-0.076,0.652-0.149,1.277-0.223,1.877C132.296,96.786,131.791,98.782,131.609,98.729z"/>
		</g>
		<g>
			<path fill="#FFFFFF" d="M132.754,123.248c-0.204,0.015-0.472-2.07-0.736-5.467c-0.136-1.698-0.266-3.723-0.389-5.951
				c-0.056-1.118-0.115-2.29-0.176-3.503c-0.014-0.262-0.025-0.525-0.037-0.789l-0.004-0.012c-0.004-0.008-0.008,0.004-0.01,0.006
				c0.192-0.214-0.499,0.571-0.922,0.937c-0.467,0.439-0.928,0.872-1.38,1.298c-0.949,0.791-1.847,1.583-2.755,2.255
				c-1.784,1.394-3.456,2.537-4.854,3.501c-2.809,1.904-4.551,3.063-4.685,2.902c-0.128-0.152,1.404-1.62,4.06-3.746
				c1.314-1.068,2.918-2.299,4.623-3.726c0.872-0.692,1.724-1.482,2.638-2.269c0.431-0.417,0.87-0.84,1.316-1.27
				c0.517-0.478,0.66-0.667,1.728-1.833c0.435-0.476,0.865-0.948,1.295-1.417l0.162-0.176l0.08-0.088l0.041-0.043
				c0.007,0.003,0.002,0.033,0.004,0.049l0.018,0.477l0.034,0.946c0.034,0.99,0.067,1.963,0.1,2.921
				c0.03,1.224,0.062,2.403,0.092,3.529c0.046,2.256,0.071,4.268,0.068,5.96C133.062,121.127,132.958,123.235,132.754,123.248z"/>
		</g>
		<g>
			<path fill="#FFFFFF" d="M116.429,138.551c-0.101,0.01-0.313-0.678-0.609-1.918c-0.144-0.63-0.315-1.384-0.515-2.257
				c-0.258-0.871-0.552-1.858-0.874-2.945c-0.663-2.177-1.571-4.733-2.573-7.598l-0.094-0.269c-0.043-0.122-0.017-0.044-0.029-0.075
				l-0.016-0.029c-0.006-0.013-0.012,0.008-0.012,0.008l-0.009,0.007c-0.025,0.017,0.055-0.032-0.069,0.049
				c-0.683,0.441-1.381,0.894-2.09,1.354c-1.473,0.78-2.992,1.614-4.587,2.364c-6.398,2.961-12.421,5.044-16.872,6.251
				c-1.097,0.337-2.135,0.526-3.023,0.742c-0.892,0.206-1.661,0.373-2.316,0.428c-1.293,0.152-2.002,0.188-2.013,0.085
				c-0.013-0.102,0.673-0.33,1.899-0.652c0.616-0.136,1.357-0.386,2.22-0.664c0.86-0.291,1.856-0.545,2.928-0.944
				c4.321-1.447,10.244-3.673,16.544-6.589c1.567-0.736,3.051-1.542,4.498-2.283c0.682-0.428,1.351-0.848,2.005-1.258l0.923-0.58
				l0.487-0.308c0.081-0.048,0.165-0.108,0.24-0.147l0.091,0.272c0.199,0.608,0.396,1.21,0.594,1.806
				c0.928,2.88,1.744,5.508,2.286,7.751c0.249,1.126,0.474,2.146,0.675,3.047c0.139,0.907,0.207,1.702,0.272,2.345
				C116.512,137.83,116.531,138.541,116.429,138.551z"/>
		</g>
		<g>
			<path fill="#FFFFFF" d="M83.901,149.789c-0.156,0.126-1.558-1.241-3.7-3.592c-1.068-1.177-2.304-2.622-3.578-4.319
				c-0.634-0.853-1.276-1.765-1.881-2.766c-0.326-0.48-0.594-1.019-0.875-1.557l-0.2-0.478L73.676,137h0.004l-0.379,0.13
				c-4.842,0.481-9.324,0.379-12.49-0.227c-3.178-0.602-4.973-1.524-4.906-1.671c0.083-0.234,1.954,0.353,5.056,0.67
				c3.103,0.32,7.429,0.312,12.207-0.164l0.522-0.042c0.287-0.003,0.626-0.104,0.868-0.025c0.211,0.406,0.419,0.812,0.627,1.214
				c0.261,0.506,0.5,1.013,0.807,1.481c0.558,0.961,1.157,1.863,1.745,2.712c1.18,1.698,2.315,3.193,3.273,4.45
				C82.932,148.034,84.065,149.657,83.901,149.789z"/>
		</g>
	</g>
</g>
</svg>